<svg width="286" height="63" viewBox="0 0 286 63" fill="none" xmlns="http://www.w3.org/2000/svg">
<path d="M11.9261 30.3977C9.81439 30.3977 7.93939 30.0426 6.30114 29.3324C4.67235 28.6222 3.39394 27.6515 2.46591 26.4205C1.54735 25.1799 1.0928 23.7737 1.10227 22.2017C1.0928 20.9801 1.35795 19.858 1.89773 18.8352C2.4375 17.8125 3.16667 16.9602 4.08523 16.2784C5.01326 15.5871 6.04545 15.1468 7.18182 14.9574V14.7585C5.68561 14.4271 4.47348 13.6648 3.54545 12.4716C2.62689 11.2689 2.17235 9.88163 2.18182 8.30966C2.17235 6.81345 2.58902 5.47822 3.43182 4.30398C4.27462 3.12973 5.42992 2.20644 6.89773 1.53409C8.36553 0.852272 10.0417 0.511363 11.9261 0.511363C13.7917 0.511363 15.4536 0.852272 16.9119 1.53409C18.3797 2.20644 19.535 3.12973 20.3778 4.30398C21.2301 5.47822 21.6562 6.81345 21.6562 8.30966C21.6562 9.88163 21.1875 11.2689 20.25 12.4716C19.322 13.6648 18.1241 14.4271 16.6562 14.7585V14.9574C17.7926 15.1468 18.8153 15.5871 19.7244 16.2784C20.643 16.9602 21.3722 17.8125 21.9119 18.8352C22.4612 19.858 22.7358 20.9801 22.7358 22.2017C22.7358 23.7737 22.2718 25.1799 21.3438 26.4205C20.4157 27.6515 19.1373 28.6222 17.5085 29.3324C15.8892 30.0426 14.0284 30.3977 11.9261 30.3977ZM11.9261 26.3352C13.0152 26.3352 13.9621 26.1506 14.767 25.7812C15.572 25.4025 16.197 24.8722 16.642 24.1903C17.0871 23.5085 17.3144 22.7225 17.3239 21.8324C17.3144 20.9044 17.0729 20.0852 16.5994 19.375C16.1354 18.6553 15.4962 18.0919 14.6818 17.6847C13.8769 17.2775 12.9583 17.0739 11.9261 17.0739C10.8845 17.0739 9.95644 17.2775 9.14205 17.6847C8.32765 18.0919 7.68371 18.6553 7.21023 19.375C6.74621 20.0852 6.51894 20.9044 6.52841 21.8324C6.51894 22.7225 6.73674 23.5085 7.18182 24.1903C7.62689 24.8627 8.25189 25.3883 9.05682 25.767C9.87121 26.1458 10.8277 26.3352 11.9261 26.3352ZM11.9261 13.0824C12.8163 13.0824 13.6023 12.9025 14.2841 12.5426C14.9754 12.1828 15.5199 11.6809 15.9176 11.0369C16.3153 10.393 16.5189 9.64962 16.5284 8.80682C16.5189 7.97348 16.3201 7.24432 15.9318 6.61932C15.5436 5.98485 15.0038 5.49716 14.3125 5.15625C13.6212 4.80587 12.8258 4.63068 11.9261 4.63068C11.0076 4.63068 10.1979 4.80587 9.49716 5.15625C8.80587 5.49716 8.2661 5.98485 7.87784 6.61932C7.49905 7.24432 7.31439 7.97348 7.32386 8.80682C7.31439 9.64962 7.50379 10.393 7.89205 11.0369C8.28977 11.6714 8.83428 12.1733 9.52557 12.5426C10.2263 12.9025 11.0265 13.0824 11.9261 13.0824ZM37.5192 30.3977C35.6252 30.3977 33.9302 30.0426 32.4339 29.3324C30.9377 28.6127 29.7493 27.6278 28.8686 26.3778C27.9974 25.1278 27.5334 23.6979 27.4766 22.0881H32.5902C32.6849 23.2812 33.201 24.2566 34.1385 25.0142C35.076 25.7623 36.2029 26.1364 37.5192 26.1364C38.5514 26.1364 39.4699 25.8996 40.2749 25.4261C41.0798 24.9527 41.7143 24.2945 42.1783 23.4517C42.6423 22.6089 42.8696 21.6477 42.8601 20.5682C42.8696 19.4697 42.6375 18.4943 42.1641 17.642C41.6906 16.7898 41.0419 16.1222 40.218 15.6392C39.3942 15.1468 38.4472 14.9006 37.3771 14.9006C36.5059 14.8911 35.6489 15.0521 34.8061 15.3835C33.9633 15.715 33.2957 16.1506 32.8033 16.6903L28.0447 15.9091L29.5646 0.90909H46.4396V5.3125H33.9254L33.0874 13.0256H33.2578C33.7976 12.3911 34.5599 11.8655 35.5447 11.4489C36.5296 11.0227 37.6091 10.8097 38.7834 10.8097C40.5447 10.8097 42.1167 11.2263 43.4993 12.0597C44.8819 12.8835 45.9709 14.0199 46.7663 15.4688C47.5618 16.9176 47.9595 18.5748 47.9595 20.4403C47.9595 22.3627 47.5144 24.0767 46.6243 25.5824C45.7436 27.0786 44.5173 28.2576 42.9453 29.1193C41.3828 29.9716 39.5741 30.3977 37.5192 30.3977ZM63.4709 30.554C61.1319 30.554 59.1243 29.9621 57.4482 28.7784C55.7815 27.5852 54.4983 25.8665 53.5987 23.6222C52.7086 21.3684 52.2635 18.6553 52.2635 15.483C52.273 12.3106 52.7228 9.61174 53.6129 7.38636C54.5125 5.15151 55.7957 3.44697 57.4624 2.27273C59.1385 1.09848 61.1413 0.511363 63.4709 0.511363C65.8004 0.511363 67.8033 1.09848 69.4794 2.27273C71.1555 3.44697 72.4387 5.15151 73.3288 7.38636C74.2285 9.62121 74.6783 12.3201 74.6783 15.483C74.6783 18.6648 74.2285 21.3826 73.3288 23.6364C72.4387 25.8807 71.1555 27.5947 69.4794 28.7784C67.8127 29.9621 65.8099 30.554 63.4709 30.554ZM63.4709 26.108C65.2891 26.108 66.7237 25.2131 67.7749 23.4233C68.8355 21.6241 69.3658 18.9773 69.3658 15.483C69.3658 13.1723 69.1243 11.2311 68.6413 9.65909C68.1584 8.08712 67.4766 6.90341 66.5959 6.10795C65.7152 5.30303 64.6735 4.90057 63.4709 4.90057C61.6622 4.90057 60.2322 5.80019 59.1811 7.59943C58.13 9.3892 57.5997 12.017 57.5902 15.483C57.5807 17.803 57.8127 19.7538 58.2862 21.3352C58.7692 22.9167 59.451 24.1098 60.3317 24.9148C61.2124 25.7102 62.2588 26.108 63.4709 26.108ZM5.10795 58.2273C4.05682 58.2273 3.15009 57.9953 2.38778 57.5312C1.63021 57.0625 1.04545 56.4091 0.633523 55.571C0.226326 54.7282 0.0227273 53.7481 0.0227273 52.6307C0.0227273 51.5133 0.226326 50.5284 0.633523 49.6761C1.04545 48.8191 1.61837 48.1515 2.35227 47.6733C3.09091 47.1903 3.95265 46.9489 4.9375 46.9489C5.50568 46.9489 6.06676 47.0436 6.62074 47.233C7.17472 47.4223 7.67898 47.7301 8.13352 48.1562C8.58807 48.5777 8.95028 49.1364 9.22017 49.8324C9.49006 50.5284 9.625 51.3854 9.625 52.4034V53.1136H1.21591V51.6648H7.92045C7.92045 51.0492 7.79735 50.5 7.55114 50.017C7.30966 49.5341 6.96402 49.1529 6.5142 48.8736C6.06913 48.5942 5.54356 48.4545 4.9375 48.4545C4.26989 48.4545 3.69223 48.6203 3.20455 48.9517C2.72159 49.2784 2.34991 49.7045 2.08949 50.2301C1.82907 50.7557 1.69886 51.3191 1.69886 51.9205V52.8864C1.69886 53.7102 1.84091 54.4086 2.125 54.9815C2.41383 55.5497 2.81392 55.983 3.32528 56.2812C3.83665 56.5748 4.43087 56.7216 5.10795 56.7216C5.5483 56.7216 5.94602 56.66 6.30114 56.5369C6.66099 56.4091 6.97112 56.2197 7.23153 55.9688C7.49195 55.7131 7.69318 55.3958 7.83523 55.017L9.45455 55.4716C9.28409 56.0208 8.99763 56.5038 8.59517 56.9205C8.19271 57.3324 7.69555 57.6544 7.10369 57.8864C6.51184 58.1136 5.84659 58.2273 5.10795 58.2273ZM12.1747 58V47.0909H13.794V48.7955H13.9361C14.1634 48.2131 14.5303 47.7609 15.0369 47.4389C15.5436 47.1122 16.152 46.9489 16.8622 46.9489C17.5819 46.9489 18.1809 47.1122 18.6591 47.4389C19.142 47.7609 19.5185 48.2131 19.7884 48.7955H19.902C20.1813 48.232 20.6004 47.7846 21.1591 47.4531C21.7178 47.117 22.3878 46.9489 23.169 46.9489C24.1444 46.9489 24.9422 47.2543 25.5625 47.8651C26.1828 48.4711 26.4929 49.4157 26.4929 50.6989V58H24.8168V50.6989C24.8168 49.8939 24.5966 49.3187 24.1562 48.973C23.7159 48.6274 23.1974 48.4545 22.6009 48.4545C21.8338 48.4545 21.2396 48.6866 20.8182 49.1506C20.3968 49.6098 20.1861 50.1922 20.1861 50.8977V58H18.4815V50.5284C18.4815 49.9081 18.2803 49.4086 17.8778 49.0298C17.4754 48.6463 16.9569 48.4545 16.3224 48.4545C15.8868 48.4545 15.4796 48.5705 15.1009 48.8026C14.7268 49.0346 14.4238 49.3565 14.1918 49.7685C13.9645 50.1757 13.8509 50.6468 13.8509 51.1818V58H12.1747ZM29.5575 62.0909V47.0909H31.1768V48.8239H31.3757C31.4988 48.6345 31.6693 48.393 31.8871 48.0994C32.1096 47.8011 32.4268 47.536 32.8388 47.304C33.2554 47.0672 33.8189 46.9489 34.5291 46.9489C35.4477 46.9489 36.2573 47.1785 36.9581 47.6378C37.6589 48.0971 38.2057 48.7481 38.5987 49.5909C38.9917 50.4337 39.1882 51.428 39.1882 52.5739C39.1882 53.7292 38.9917 54.7306 38.5987 55.5781C38.2057 56.4209 37.6612 57.0743 36.9652 57.5384C36.2692 57.9976 35.4666 58.2273 34.5575 58.2273C33.8568 58.2273 33.2957 58.1113 32.8743 57.8793C32.4529 57.6425 32.1286 57.375 31.9013 57.0767C31.674 56.7737 31.4988 56.5227 31.3757 56.3239H31.2337V62.0909H29.5575ZM31.2053 52.5455C31.2053 53.3693 31.326 54.0961 31.5675 54.7259C31.8089 55.3509 32.1617 55.8409 32.6257 56.196C33.0897 56.5464 33.6579 56.7216 34.3303 56.7216C35.031 56.7216 35.6158 56.5369 36.0845 56.1676C36.558 55.7936 36.9131 55.2917 37.1499 54.6619C37.3913 54.0275 37.5121 53.322 37.5121 52.5455C37.5121 51.7784 37.3937 51.0871 37.157 50.4716C36.925 49.8513 36.5722 49.3613 36.0987 49.0014C35.63 48.6368 35.0405 48.4545 34.3303 48.4545C33.6484 48.4545 33.0755 48.6274 32.6115 48.973C32.1475 49.3139 31.7971 49.7921 31.5604 50.4077C31.3236 51.0185 31.2053 51.7311 31.2053 52.5455ZM41.745 58V47.0909H43.3643V48.7386H43.478C43.6768 48.1989 44.0367 47.7609 44.5575 47.4247C45.0784 47.0885 45.6655 46.9205 46.3189 46.9205C46.442 46.9205 46.5959 46.9228 46.7805 46.9276C46.9652 46.9323 47.1049 46.9394 47.1996 46.9489V48.6534C47.1428 48.6392 47.0125 48.6179 46.8089 48.5895C46.6101 48.5563 46.3994 48.5398 46.1768 48.5398C45.6465 48.5398 45.1731 48.651 44.7564 48.8736C44.3445 49.0914 44.0178 49.3944 43.7763 49.7827C43.5395 50.1662 43.4212 50.6042 43.4212 51.0966V58H41.745ZM53.4283 58.2273C52.3771 58.2273 51.4704 57.9953 50.7081 57.5312C49.9505 57.0625 49.3658 56.4091 48.9538 55.571C48.5466 54.7282 48.343 53.7481 48.343 52.6307C48.343 51.5133 48.5466 50.5284 48.9538 49.6761C49.3658 48.8191 49.9387 48.1515 50.6726 47.6733C51.4112 47.1903 52.273 46.9489 53.2578 46.9489C53.826 46.9489 54.3871 47.0436 54.9411 47.233C55.495 47.4223 55.9993 47.7301 56.4538 48.1562C56.9084 48.5777 57.2706 49.1364 57.5405 49.8324C57.8104 50.5284 57.9453 51.3854 57.9453 52.4034V53.1136H49.5362V51.6648H56.2408C56.2408 51.0492 56.1177 50.5 55.8714 50.017C55.63 49.5341 55.2843 49.1529 54.8345 48.8736C54.3894 48.5942 53.8639 48.4545 53.2578 48.4545C52.5902 48.4545 52.0125 48.6203 51.5249 48.9517C51.0419 49.2784 50.6702 49.7045 50.4098 50.2301C50.1494 50.7557 50.0192 51.3191 50.0192 51.9205V52.8864C50.0192 53.7102 50.1612 54.4086 50.4453 54.9815C50.7341 55.5497 51.1342 55.983 51.6456 56.2812C52.157 56.5748 52.7512 56.7216 53.4283 56.7216C53.8686 56.7216 54.2663 56.66 54.6214 56.5369C54.9813 56.4091 55.2914 56.2197 55.5518 55.9688C55.8123 55.7131 56.0135 55.3958 56.1555 55.017L57.7749 55.4716C57.6044 56.0208 57.3179 56.5038 56.9155 56.9205C56.513 57.3324 56.0159 57.6544 55.424 57.8864C54.8321 58.1136 54.1669 58.2273 53.4283 58.2273ZM65.0689 58.2273C64.0178 58.2273 63.111 57.9953 62.3487 57.5312C61.5911 57.0625 61.0064 56.4091 60.5945 55.571C60.1873 54.7282 59.9837 53.7481 59.9837 52.6307C59.9837 51.5133 60.1873 50.5284 60.5945 49.6761C61.0064 48.8191 61.5793 48.1515 62.3132 47.6733C63.0518 47.1903 63.9136 46.9489 64.8984 46.9489C65.4666 46.9489 66.0277 47.0436 66.5817 47.233C67.1357 47.4223 67.6399 47.7301 68.0945 48.1562C68.549 48.5777 68.9112 49.1364 69.1811 49.8324C69.451 50.5284 69.5859 51.3854 69.5859 52.4034V53.1136H61.1768V51.6648H67.8814C67.8814 51.0492 67.7583 50.5 67.5121 50.017C67.2706 49.5341 66.925 49.1529 66.4751 48.8736C66.0301 48.5942 65.5045 48.4545 64.8984 48.4545C64.2308 48.4545 63.6532 48.6203 63.1655 48.9517C62.6825 49.2784 62.3108 49.7045 62.0504 50.2301C61.79 50.7557 61.6598 51.3191 61.6598 51.9205V52.8864C61.6598 53.7102 61.8018 54.4086 62.0859 54.9815C62.3748 55.5497 62.7749 55.983 63.2862 56.2812C63.7976 56.5748 64.3918 56.7216 65.0689 56.7216C65.5092 56.7216 65.907 56.66 66.2621 56.5369C66.6219 56.4091 66.9321 56.2197 67.1925 55.9688C67.4529 55.7131 67.6541 55.3958 67.7962 55.017L69.4155 55.4716C69.245 56.0208 68.9586 56.5038 68.5561 56.9205C68.1536 57.3324 67.6565 57.6544 67.0646 57.8864C66.4728 58.1136 65.8075 58.2273 65.0689 58.2273ZM73.8118 51.4375V58H72.1357V47.0909H73.755V48.7955H73.897C74.1527 48.2415 74.541 47.7964 75.0618 47.4602C75.5826 47.1193 76.255 46.9489 77.0788 46.9489C77.8175 46.9489 78.4638 47.1004 79.0178 47.4034C79.5717 47.7017 80.0026 48.1562 80.3104 48.767C80.6181 49.3731 80.772 50.1402 80.772 51.0682V58H79.0959V51.1818C79.0959 50.3248 78.8733 49.6572 78.4283 49.179C77.9832 48.696 77.3724 48.4545 76.5959 48.4545C76.0608 48.4545 75.5826 48.5705 75.1612 48.8026C74.7446 49.0346 74.4155 49.3731 74.174 49.8182C73.9325 50.2633 73.8118 50.803 73.8118 51.4375ZM87.9542 58.2273C87.0451 58.2273 86.2425 57.9976 85.5465 57.5384C84.8505 57.0743 84.306 56.4209 83.913 55.5781C83.52 54.7306 83.3235 53.7292 83.3235 52.5739C83.3235 51.428 83.52 50.4337 83.913 49.5909C84.306 48.7481 84.8529 48.0971 85.5536 47.6378C86.2544 47.1785 87.064 46.9489 87.9826 46.9489C88.6928 46.9489 89.2539 47.0672 89.6658 47.304C90.0825 47.536 90.3997 47.8011 90.6175 48.0994C90.8401 48.393 91.0129 48.6345 91.136 48.8239H91.2781V43.4545H92.9542V58H91.3349V56.3239H91.136C91.0129 56.5227 90.8377 56.7737 90.6104 57.0767C90.3832 57.375 90.0588 57.6425 89.6374 57.8793C89.216 58.1113 88.6549 58.2273 87.9542 58.2273ZM88.1815 56.7216C88.8538 56.7216 89.422 56.5464 89.886 56.196C90.35 55.8409 90.7028 55.3509 90.9442 54.7259C91.1857 54.0961 91.3065 53.3693 91.3065 52.5455C91.3065 51.7311 91.1881 51.0185 90.9513 50.4077C90.7146 49.7921 90.3642 49.3139 89.9002 48.973C89.4362 48.6274 88.8633 48.4545 88.1815 48.4545C87.4712 48.4545 86.8794 48.6368 86.4059 49.0014C85.9371 49.3613 85.5844 49.8513 85.3477 50.4716C85.1156 51.0871 84.9996 51.7784 84.9996 52.5455C84.9996 53.322 85.118 54.0275 85.3548 54.6619C85.5962 55.2917 85.9513 55.7936 86.4201 56.1676C86.8936 56.5369 87.4807 56.7216 88.1815 56.7216ZM96.2567 58V47.0909H97.9329V58H96.2567ZM97.109 45.2727C96.7823 45.2727 96.5006 45.1615 96.2638 44.9389C96.0318 44.7164 95.9158 44.4489 95.9158 44.1364C95.9158 43.8239 96.0318 43.5563 96.2638 43.3338C96.5006 43.1113 96.7823 43 97.109 43C97.4357 43 97.7151 43.1113 97.9471 43.3338C98.1838 43.5563 98.3022 43.8239 98.3022 44.1364C98.3022 44.4489 98.1838 44.7164 97.9471 44.9389C97.7151 45.1615 97.4357 45.2727 97.109 45.2727ZM101.003 58V47.0909H102.622V48.7955H102.764C102.991 48.2131 103.358 47.7609 103.865 47.4389C104.372 47.1122 104.98 46.9489 105.69 46.9489C106.41 46.9489 107.009 47.1122 107.487 47.4389C107.97 47.7609 108.347 48.2131 108.616 48.7955H108.73C109.009 48.232 109.429 47.7846 109.987 47.4531C110.546 47.117 111.216 46.9489 111.997 46.9489C112.973 46.9489 113.77 47.2543 114.391 47.8651C115.011 48.4711 115.321 49.4157 115.321 50.6989V58H113.645V50.6989C113.645 49.8939 113.425 49.3187 112.984 48.973C112.544 48.6274 112.026 48.4545 111.429 48.4545C110.662 48.4545 110.068 48.6866 109.646 49.1506C109.225 49.6098 109.014 50.1922 109.014 50.8977V58H107.31V50.5284C107.31 49.9081 107.108 49.4086 106.706 49.0298C106.304 48.6463 105.785 48.4545 105.151 48.4545C104.715 48.4545 104.308 48.5705 103.929 48.8026C103.555 49.0346 103.252 49.3565 103.02 49.7685C102.793 50.1757 102.679 50.6468 102.679 51.1818V58H101.003ZM122.96 58.2273C121.908 58.2273 121.002 57.9953 120.239 57.5312C119.482 57.0625 118.897 56.4091 118.485 55.571C118.078 54.7282 117.874 53.7481 117.874 52.6307C117.874 51.5133 118.078 50.5284 118.485 49.6761C118.897 48.8191 119.47 48.1515 120.204 47.6733C120.942 47.1903 121.804 46.9489 122.789 46.9489C123.357 46.9489 123.918 47.0436 124.472 47.233C125.026 47.4223 125.531 47.7301 125.985 48.1562C126.44 48.5777 126.802 49.1364 127.072 49.8324C127.342 50.5284 127.477 51.3854 127.477 52.4034V53.1136H119.067V51.6648H125.772C125.772 51.0492 125.649 50.5 125.403 50.017C125.161 49.5341 124.816 49.1529 124.366 48.8736C123.921 48.5942 123.395 48.4545 122.789 48.4545C122.121 48.4545 121.544 48.6203 121.056 48.9517C120.573 49.2784 120.201 49.7045 119.941 50.2301C119.681 50.7557 119.55 51.3191 119.55 51.9205V52.8864C119.55 53.7102 119.692 54.4086 119.977 54.9815C120.265 55.5497 120.665 55.983 121.177 56.2812C121.688 56.5748 122.282 56.7216 122.96 56.7216C123.4 56.7216 123.798 56.66 124.153 56.5369C124.513 56.4091 124.823 56.2197 125.083 55.9688C125.344 55.7131 125.545 55.3958 125.687 55.017L127.306 55.4716C127.136 56.0208 126.849 56.5038 126.447 56.9205C126.044 57.3324 125.547 57.6544 124.955 57.8864C124.363 58.1136 123.698 58.2273 122.96 58.2273ZM131.702 51.4375V58H130.026V47.0909H131.646V48.7955H131.788C132.043 48.2415 132.432 47.7964 132.952 47.4602C133.473 47.1193 134.146 46.9489 134.969 46.9489C135.708 46.9489 136.354 47.1004 136.908 47.4034C137.462 47.7017 137.893 48.1562 138.201 48.767C138.509 49.3731 138.663 50.1402 138.663 51.0682V58H136.987V51.1818C136.987 50.3248 136.764 49.6572 136.319 49.179C135.874 48.696 135.263 48.4545 134.487 48.4545C133.951 48.4545 133.473 48.5705 133.052 48.8026C132.635 49.0346 132.306 49.3731 132.065 49.8182C131.823 50.2633 131.702 50.803 131.702 51.4375ZM146.47 47.0909V48.5114H140.816V47.0909H146.47ZM142.464 44.4773H144.14V54.875C144.14 55.3485 144.209 55.7036 144.346 55.9403C144.488 56.1723 144.668 56.3286 144.886 56.4091C145.109 56.4848 145.343 56.5227 145.589 56.5227C145.774 56.5227 145.925 56.5133 146.044 56.4943C146.162 56.4706 146.257 56.4517 146.328 56.4375L146.669 57.9432C146.555 57.9858 146.396 58.0284 146.193 58.071C145.989 58.1184 145.731 58.142 145.419 58.142C144.945 58.142 144.481 58.0402 144.027 57.8366C143.577 57.633 143.203 57.3229 142.904 56.9062C142.611 56.4896 142.464 55.964 142.464 55.3295V44.4773ZM153.306 58.2273C152.321 58.2273 151.457 57.9929 150.713 57.5241C149.975 57.0554 149.397 56.3996 148.98 55.5568C148.569 54.714 148.363 53.7292 148.363 52.6023C148.363 51.4659 148.569 50.474 148.98 49.6264C149.397 48.7789 149.975 48.1207 150.713 47.652C151.457 47.1832 152.321 46.9489 153.306 46.9489C154.291 46.9489 155.152 47.1832 155.891 47.652C156.634 48.1207 157.212 48.7789 157.624 49.6264C158.041 50.474 158.249 51.4659 158.249 52.6023C158.249 53.7292 158.041 54.714 157.624 55.5568C157.212 56.3996 156.634 57.0554 155.891 57.5241C155.152 57.9929 154.291 58.2273 153.306 58.2273ZM153.306 56.7216C154.054 56.7216 154.669 56.5298 155.152 56.1463C155.635 55.7628 155.993 55.2585 156.225 54.6335C156.457 54.0085 156.573 53.3314 156.573 52.6023C156.573 51.8731 156.457 51.1937 156.225 50.5639C155.993 49.9342 155.635 49.4252 155.152 49.0369C154.669 48.6487 154.054 48.4545 153.306 48.4545C152.558 48.4545 151.942 48.6487 151.459 49.0369C150.976 49.4252 150.619 49.9342 150.387 50.5639C150.155 51.1937 150.039 51.8731 150.039 52.6023C150.039 53.3314 150.155 54.0085 150.387 54.6335C150.619 55.2585 150.976 55.7628 151.459 56.1463C151.942 56.5298 152.558 56.7216 153.306 56.7216ZM168.535 49.5341L167.029 49.9602C166.934 49.7093 166.795 49.4654 166.61 49.2287C166.43 48.9872 166.184 48.7884 165.871 48.6321C165.559 48.4759 165.159 48.3977 164.671 48.3977C164.004 48.3977 163.447 48.5516 163.002 48.8594C162.562 49.1624 162.342 49.5483 162.342 50.017C162.342 50.4337 162.493 50.7628 162.796 51.0043C163.099 51.2457 163.573 51.447 164.217 51.608L165.836 52.0057C166.811 52.2424 167.538 52.6046 168.016 53.0923C168.495 53.5753 168.734 54.1979 168.734 54.9602C168.734 55.5852 168.554 56.1439 168.194 56.6364C167.839 57.1288 167.342 57.517 166.702 57.8011C166.063 58.0852 165.32 58.2273 164.472 58.2273C163.36 58.2273 162.439 57.9858 161.71 57.5028C160.98 57.0199 160.519 56.3144 160.325 55.3864L161.915 54.9886C162.067 55.5758 162.353 56.0161 162.775 56.3097C163.201 56.6032 163.757 56.75 164.444 56.75C165.225 56.75 165.845 56.5843 166.305 56.2528C166.769 55.9167 167.001 55.5142 167.001 55.0455C167.001 54.6667 166.868 54.3494 166.603 54.0938C166.338 53.8333 165.931 53.6392 165.381 53.5114L163.563 53.0852C162.564 52.8485 161.83 52.4815 161.362 51.9844C160.897 51.4825 160.665 50.8551 160.665 50.1023C160.665 49.4867 160.838 48.9422 161.184 48.4688C161.534 47.9953 162.01 47.6236 162.612 47.3537C163.218 47.0838 163.904 46.9489 164.671 46.9489C165.751 46.9489 166.598 47.1856 167.214 47.6591C167.834 48.1326 168.274 48.7576 168.535 49.5341ZM181.314 58.2273C180.291 58.2273 179.41 57.9858 178.672 57.5028C177.933 57.0199 177.365 56.3546 176.967 55.5071C176.569 54.6596 176.37 53.6913 176.37 52.6023C176.37 51.4943 176.574 50.5166 176.981 49.669C177.393 48.8168 177.966 48.1515 178.7 47.6733C179.439 47.1903 180.3 46.9489 181.285 46.9489C182.052 46.9489 182.743 47.0909 183.359 47.375C183.975 47.6591 184.479 48.0568 184.872 48.5682C185.265 49.0795 185.509 49.6761 185.603 50.358H183.927C183.799 49.8608 183.515 49.4205 183.075 49.0369C182.639 48.6487 182.052 48.4545 181.314 48.4545C180.66 48.4545 180.087 48.625 179.595 48.9659C179.107 49.3021 178.726 49.7779 178.451 50.3935C178.181 51.0043 178.047 51.7216 178.047 52.5455C178.047 53.3883 178.179 54.1222 178.444 54.7472C178.714 55.3722 179.093 55.8575 179.581 56.2031C180.073 56.5488 180.651 56.7216 181.314 56.7216C181.749 56.7216 182.145 56.6458 182.5 56.4943C182.855 56.3428 183.155 56.125 183.402 55.8409C183.648 55.5568 183.823 55.2159 183.927 54.8182H185.603C185.509 55.4621 185.274 56.0421 184.9 56.5582C184.531 57.0696 184.041 57.4768 183.43 57.7798C182.824 58.0781 182.118 58.2273 181.314 58.2273ZM192.485 58.2273C191.501 58.2273 190.636 57.9929 189.893 57.5241C189.154 57.0554 188.577 56.3996 188.16 55.5568C187.748 54.714 187.542 53.7292 187.542 52.6023C187.542 51.4659 187.748 50.474 188.16 49.6264C188.577 48.7789 189.154 48.1207 189.893 47.652C190.636 47.1832 191.501 46.9489 192.485 46.9489C193.47 46.9489 194.332 47.1832 195.071 47.652C195.814 48.1207 196.392 48.7789 196.804 49.6264C197.22 50.474 197.429 51.4659 197.429 52.6023C197.429 53.7292 197.22 54.714 196.804 55.5568C196.392 56.3996 195.814 57.0554 195.071 57.5241C194.332 57.9929 193.47 58.2273 192.485 58.2273ZM192.485 56.7216C193.234 56.7216 193.849 56.5298 194.332 56.1463C194.815 55.7628 195.172 55.2585 195.404 54.6335C195.636 54.0085 195.752 53.3314 195.752 52.6023C195.752 51.8731 195.636 51.1937 195.404 50.5639C195.172 49.9342 194.815 49.4252 194.332 49.0369C193.849 48.6487 193.234 48.4545 192.485 48.4545C191.737 48.4545 191.122 48.6487 190.639 49.0369C190.156 49.4252 189.798 49.9342 189.566 50.5639C189.334 51.1937 189.218 51.8731 189.218 52.6023C189.218 53.3314 189.334 54.0085 189.566 54.6335C189.798 55.2585 190.156 55.7628 190.639 56.1463C191.122 56.5298 191.737 56.7216 192.485 56.7216ZM201.663 51.4375V58H199.987V47.0909H201.607V48.7955H201.749C202.004 48.2415 202.393 47.7964 202.913 47.4602C203.434 47.1193 204.107 46.9489 204.93 46.9489C205.669 46.9489 206.315 47.1004 206.869 47.4034C207.423 47.7017 207.854 48.1562 208.162 48.767C208.47 49.3731 208.624 50.1402 208.624 51.0682V58H206.947V51.1818C206.947 50.3248 206.725 49.6572 206.28 49.179C205.835 48.696 205.224 48.4545 204.447 48.4545C203.912 48.4545 203.434 48.5705 203.013 48.8026C202.596 49.0346 202.267 49.3731 202.026 49.8182C201.784 50.2633 201.663 50.803 201.663 51.4375ZM219.414 49.5341L217.908 49.9602C217.813 49.7093 217.674 49.4654 217.489 49.2287C217.309 48.9872 217.063 48.7884 216.75 48.6321C216.438 48.4759 216.038 48.3977 215.55 48.3977C214.882 48.3977 214.326 48.5516 213.881 48.8594C213.441 49.1624 213.221 49.5483 213.221 50.017C213.221 50.4337 213.372 50.7628 213.675 51.0043C213.978 51.2457 214.452 51.447 215.096 51.608L216.715 52.0057C217.69 52.2424 218.417 52.6046 218.895 53.0923C219.373 53.5753 219.613 54.1979 219.613 54.9602C219.613 55.5852 219.433 56.1439 219.073 56.6364C218.718 57.1288 218.221 57.517 217.581 57.8011C216.942 58.0852 216.199 58.2273 215.351 58.2273C214.239 58.2273 213.318 57.9858 212.588 57.5028C211.859 57.0199 211.398 56.3144 211.203 55.3864L212.794 54.9886C212.946 55.5758 213.232 56.0161 213.654 56.3097C214.08 56.6032 214.636 56.75 215.323 56.75C216.104 56.75 216.724 56.5843 217.184 56.2528C217.648 55.9167 217.88 55.5142 217.88 55.0455C217.88 54.6667 217.747 54.3494 217.482 54.0938C217.217 53.8333 216.81 53.6392 216.26 53.5114L214.442 53.0852C213.443 52.8485 212.709 52.4815 212.24 51.9844C211.776 51.4825 211.544 50.8551 211.544 50.1023C211.544 49.4867 211.717 48.9422 212.063 48.4688C212.413 47.9953 212.889 47.6236 213.49 47.3537C214.096 47.0838 214.783 46.9489 215.55 46.9489C216.63 46.9489 217.477 47.1856 218.093 47.6591C218.713 48.1326 219.153 48.7576 219.414 49.5341ZM226.88 47.0909V48.5114H221.227V47.0909H226.88ZM222.874 44.4773H224.55V54.875C224.55 55.3485 224.619 55.7036 224.756 55.9403C224.898 56.1723 225.078 56.3286 225.296 56.4091C225.519 56.4848 225.753 56.5227 225.999 56.5227C226.184 56.5227 226.335 56.5133 226.454 56.4943C226.572 56.4706 226.667 56.4517 226.738 56.4375L227.079 57.9432C226.965 57.9858 226.807 58.0284 226.603 58.071C226.399 58.1184 226.141 58.142 225.829 58.142C225.355 58.142 224.891 58.0402 224.437 57.8366C223.987 57.633 223.613 57.3229 223.315 56.9062C223.021 56.4896 222.874 55.964 222.874 55.3295V44.4773ZM229.401 58V47.0909H231.021V48.7386H231.134C231.333 48.1989 231.693 47.7609 232.214 47.4247C232.735 47.0885 233.322 46.9205 233.975 46.9205C234.098 46.9205 234.252 46.9228 234.437 46.9276C234.621 46.9323 234.761 46.9394 234.856 46.9489V48.6534C234.799 48.6392 234.669 48.6179 234.465 48.5895C234.266 48.5563 234.056 48.5398 233.833 48.5398C233.303 48.5398 232.829 48.651 232.413 48.8736C232.001 49.0914 231.674 49.3944 231.433 49.7827C231.196 50.1662 231.077 50.6042 231.077 51.0966V58H229.401ZM243.718 53.5398V47.0909H245.394V58H243.718V56.1534H243.604C243.348 56.7074 242.951 57.1785 242.411 57.5668C241.871 57.9503 241.189 58.142 240.365 58.142C239.684 58.142 239.078 57.9929 238.547 57.6946C238.017 57.3916 237.6 56.937 237.297 56.331C236.994 55.7202 236.843 54.9508 236.843 54.0227V47.0909H238.519V53.9091C238.519 54.7045 238.741 55.339 239.186 55.8125C239.636 56.286 240.209 56.5227 240.905 56.5227C241.322 56.5227 241.746 56.4162 242.176 56.2031C242.612 55.9901 242.977 55.6634 243.27 55.223C243.569 54.7827 243.718 54.2216 243.718 53.5398ZM248.464 58V47.0909H250.14V58H248.464ZM248.549 45.6136L250.282 42.3182H252.242L250.026 45.6136H248.549ZM257.329 58.2273C256.42 58.2273 255.618 57.9976 254.922 57.5384C254.225 57.0743 253.681 56.4209 253.288 55.5781C252.895 54.7306 252.699 53.7292 252.699 52.5739C252.699 51.428 252.895 50.4337 253.288 49.5909C253.681 48.7481 254.228 48.0971 254.929 47.6378C255.629 47.1785 256.439 46.9489 257.358 46.9489C258.068 46.9489 258.629 47.0672 259.041 47.304C259.458 47.536 259.775 47.8011 259.993 48.0994C260.215 48.393 260.388 48.6345 260.511 48.8239H260.653V43.4545H262.329V58H260.71V56.3239H260.511C260.388 56.5227 260.213 56.7737 259.985 57.0767C259.758 57.375 259.434 57.6425 259.012 57.8793C258.591 58.1113 258.03 58.2273 257.329 58.2273ZM257.556 56.7216C258.229 56.7216 258.797 56.5464 259.261 56.196C259.725 55.8409 260.078 55.3509 260.319 54.7259C260.561 54.0961 260.681 53.3693 260.681 52.5455C260.681 51.7311 260.563 51.0185 260.326 50.4077C260.09 49.7921 259.739 49.3139 259.275 48.973C258.811 48.6274 258.238 48.4545 257.556 48.4545C256.846 48.4545 256.254 48.6368 255.781 49.0014C255.312 49.3613 254.959 49.8513 254.723 50.4716C254.491 51.0871 254.375 51.7784 254.375 52.5455C254.375 53.322 254.493 54.0275 254.73 54.6619C254.971 55.2917 255.326 55.7936 255.795 56.1676C256.269 56.5369 256.856 56.7216 257.556 56.7216ZM270.064 58.2273C269.079 58.2273 268.215 57.9929 267.471 57.5241C266.733 57.0554 266.155 56.3996 265.738 55.5568C265.326 54.714 265.12 53.7292 265.12 52.6023C265.12 51.4659 265.326 50.474 265.738 49.6264C266.155 48.7789 266.733 48.1207 267.471 47.652C268.215 47.1832 269.079 46.9489 270.064 46.9489C271.048 46.9489 271.91 47.1832 272.649 47.652C273.392 48.1207 273.97 48.7789 274.382 49.6264C274.798 50.474 275.007 51.4659 275.007 52.6023C275.007 53.7292 274.798 54.714 274.382 55.5568C273.97 56.3996 273.392 57.0554 272.649 57.5241C271.91 57.9929 271.048 58.2273 270.064 58.2273ZM270.064 56.7216C270.812 56.7216 271.427 56.5298 271.91 56.1463C272.393 55.7628 272.751 55.2585 272.983 54.6335C273.215 54.0085 273.331 53.3314 273.331 52.6023C273.331 51.8731 273.215 51.1937 272.983 50.5639C272.751 49.9342 272.393 49.4252 271.91 49.0369C271.427 48.6487 270.812 48.4545 270.064 48.4545C269.315 48.4545 268.7 48.6487 268.217 49.0369C267.734 49.4252 267.377 49.9342 267.145 50.5639C266.913 51.1937 266.797 51.8731 266.797 52.6023C266.797 53.3314 266.913 54.0085 267.145 54.6335C267.377 55.2585 267.734 55.7628 268.217 56.1463C268.7 56.5298 269.315 56.7216 270.064 56.7216ZM285.293 49.5341L283.787 49.9602C283.692 49.7093 283.553 49.4654 283.368 49.2287C283.188 48.9872 282.942 48.7884 282.629 48.6321C282.317 48.4759 281.917 48.3977 281.429 48.3977C280.761 48.3977 280.205 48.5516 279.76 48.8594C279.32 49.1624 279.099 49.5483 279.099 50.017C279.099 50.4337 279.251 50.7628 279.554 51.0043C279.857 51.2457 280.33 51.447 280.974 51.608L282.594 52.0057C283.569 52.2424 284.296 52.6046 284.774 53.0923C285.252 53.5753 285.491 54.1979 285.491 54.9602C285.491 55.5852 285.312 56.1439 284.952 56.6364C284.597 57.1288 284.099 57.517 283.46 57.8011C282.821 58.0852 282.078 58.2273 281.23 58.2273C280.117 58.2273 279.196 57.9858 278.467 57.5028C277.738 57.0199 277.277 56.3144 277.082 55.3864L278.673 54.9886C278.825 55.5758 279.111 56.0161 279.533 56.3097C279.959 56.6032 280.515 56.75 281.202 56.75C281.983 56.75 282.603 56.5843 283.062 56.2528C283.527 55.9167 283.759 55.5142 283.759 55.0455C283.759 54.6667 283.626 54.3494 283.361 54.0938C283.096 53.8333 282.688 53.6392 282.139 53.5114L280.321 53.0852C279.322 52.8485 278.588 52.4815 278.119 51.9844C277.655 51.4825 277.423 50.8551 277.423 50.1023C277.423 49.4867 277.596 48.9422 277.942 48.4688C278.292 47.9953 278.768 47.6236 279.369 47.3537C279.975 47.0838 280.662 46.9489 281.429 46.9489C282.509 46.9489 283.356 47.1856 283.972 47.6591C284.592 48.1326 285.032 48.7576 285.293 49.5341Z" fill="black"/>
</svg>
