<svg width="258" height="63" viewBox="0 0 258 63" fill="none" xmlns="http://www.w3.org/2000/svg">
<path d="M1.58523 30V26.1932L11.6847 16.2926C12.6506 15.3172 13.4555 14.4508 14.0994 13.6932C14.7434 12.9356 15.2263 12.2017 15.5483 11.4915C15.8703 10.7812 16.0312 10.0237 16.0312 9.21875C16.0312 8.30019 15.8229 7.5142 15.4062 6.8608C14.9896 6.19792 14.4167 5.68655 13.6875 5.3267C12.9583 4.96686 12.1297 4.78693 11.2017 4.78693C10.2453 4.78693 9.4072 4.98579 8.6875 5.38352C7.9678 5.77178 7.40909 6.32576 7.01136 7.04545C6.62311 7.76515 6.42898 8.62216 6.42898 9.61648H1.41477C1.41477 7.76989 1.83617 6.16477 2.67898 4.80114C3.52178 3.4375 4.68182 2.38163 6.15909 1.63352C7.64583 0.885416 9.35038 0.511363 11.2727 0.511363C13.2235 0.511363 14.9375 0.875946 16.4148 1.60511C17.892 2.33428 19.0379 3.33333 19.8523 4.60227C20.6761 5.87121 21.0881 7.32007 21.0881 8.94886C21.0881 10.0379 20.8797 11.108 20.4631 12.1591C20.0464 13.2102 19.3125 14.375 18.2614 15.6534C17.2197 16.9318 15.7566 18.4801 13.8722 20.2983L8.85795 25.3977V25.5966H21.5284V30H1.58523ZM32.5227 26.0227L32.3381 27.5852C32.2055 28.7784 31.9688 29.9905 31.6278 31.2216C31.2964 32.4621 30.946 33.6032 30.5767 34.6449C30.2074 35.6866 29.9091 36.5057 29.6818 37.1023H26.2159C26.3485 36.5246 26.5284 35.7386 26.7557 34.7443C26.9924 33.75 27.2197 32.6326 27.4375 31.392C27.6553 30.1515 27.8021 28.892 27.8778 27.6136L27.9773 26.0227H32.5227ZM47.8459 30.554C45.5069 30.554 43.4993 29.9621 41.8232 28.7784C40.1565 27.5852 38.8733 25.8665 37.9737 23.6222C37.0836 21.3684 36.6385 18.6553 36.6385 15.483C36.648 12.3106 37.0978 9.61174 37.9879 7.38636C38.8875 5.15151 40.1707 3.44697 41.8374 2.27273C43.5135 1.09848 45.5163 0.511363 47.8459 0.511363C50.1754 0.511363 52.1783 1.09848 53.8544 2.27273C55.5305 3.44697 56.8137 5.15151 57.7038 7.38636C58.6035 9.62121 59.0533 12.3201 59.0533 15.483C59.0533 18.6648 58.6035 21.3826 57.7038 23.6364C56.8137 25.8807 55.5305 27.5947 53.8544 28.7784C52.1877 29.9621 50.1849 30.554 47.8459 30.554ZM47.8459 26.108C49.6641 26.108 51.0987 25.2131 52.1499 23.4233C53.2105 21.6241 53.7408 18.9773 53.7408 15.483C53.7408 13.1723 53.4993 11.2311 53.0163 9.65909C52.5334 8.08712 51.8516 6.90341 50.9709 6.10795C50.0902 5.30303 49.0485 4.90057 47.8459 4.90057C46.0372 4.90057 44.6072 5.80019 43.5561 7.59943C42.505 9.3892 41.9747 12.017 41.9652 15.483C41.9557 17.803 42.1877 19.7538 42.6612 21.3352C43.1442 22.9167 43.826 24.1098 44.7067 24.9148C45.5874 25.7102 46.6338 26.108 47.8459 26.108ZM74.5256 30.554C72.1866 30.554 70.179 29.9621 68.5028 28.7784C66.8362 27.5852 65.553 25.8665 64.6534 23.6222C63.7633 21.3684 63.3182 18.6553 63.3182 15.483C63.3277 12.3106 63.7775 9.61174 64.6676 7.38636C65.5672 5.15151 66.8504 3.44697 68.517 2.27273C70.1932 1.09848 72.196 0.511363 74.5256 0.511363C76.8551 0.511363 78.858 1.09848 80.5341 2.27273C82.2102 3.44697 83.4934 5.15151 84.3835 7.38636C85.2831 9.62121 85.733 12.3201 85.733 15.483C85.733 18.6648 85.2831 21.3826 84.3835 23.6364C83.4934 25.8807 82.2102 27.5947 80.5341 28.7784C78.8674 29.9621 76.8646 30.554 74.5256 30.554ZM74.5256 26.108C76.3438 26.108 77.7784 25.2131 78.8295 23.4233C79.8902 21.6241 80.4205 18.9773 80.4205 15.483C80.4205 13.1723 80.179 11.2311 79.696 9.65909C79.2131 8.08712 78.5313 6.90341 77.6506 6.10795C76.7699 5.30303 75.7282 4.90057 74.5256 4.90057C72.7169 4.90057 71.2869 5.80019 70.2358 7.59943C69.1847 9.3892 68.6544 12.017 68.6449 15.483C68.6354 17.803 68.8674 19.7538 69.3409 21.3352C69.8239 22.9167 70.5057 24.1098 71.3864 24.9148C72.267 25.7102 73.3134 26.108 74.5256 26.108ZM101.205 30.554C98.8662 30.554 96.8587 29.9621 95.1825 28.7784C93.5159 27.5852 92.2327 25.8665 91.3331 23.6222C90.4429 21.3684 89.9979 18.6553 89.9979 15.483C90.0073 12.3106 90.4571 9.61174 91.3473 7.38636C92.2469 5.15151 93.5301 3.44697 95.1967 2.27273C96.8729 1.09848 98.8757 0.511363 101.205 0.511363C103.535 0.511363 105.538 1.09848 107.214 2.27273C108.89 3.44697 110.173 5.15151 111.063 7.38636C111.963 9.62121 112.413 12.3201 112.413 15.483C112.413 18.6648 111.963 21.3826 111.063 23.6364C110.173 25.8807 108.89 27.5947 107.214 28.7784C105.547 29.9621 103.544 30.554 101.205 30.554ZM101.205 26.108C103.023 26.108 104.458 25.2131 105.509 23.4233C106.57 21.6241 107.1 18.9773 107.1 15.483C107.1 13.1723 106.859 11.2311 106.376 9.65909C105.893 8.08712 105.211 6.90341 104.33 6.10795C103.45 5.30303 102.408 4.90057 101.205 4.90057C99.3965 4.90057 97.9666 5.80019 96.9155 7.59943C95.8643 9.3892 95.334 12.017 95.3246 15.483C95.3151 17.803 95.5471 19.7538 96.0206 21.3352C96.5036 22.9167 97.1854 24.1098 98.0661 24.9148C98.9467 25.7102 99.9931 26.108 101.205 26.108ZM122.093 26.0227L121.908 27.5852C121.776 28.7784 121.539 29.9905 121.198 31.2216C120.867 32.4621 120.516 33.6032 120.147 34.6449C119.778 35.6866 119.479 36.5057 119.252 37.1023H115.786C115.919 36.5246 116.099 35.7386 116.326 34.7443C116.563 33.75 116.79 32.6326 117.008 31.392C117.226 30.1515 117.372 28.892 117.448 27.6136L117.548 26.0227H122.093ZM137.416 30.554C135.077 30.554 133.07 29.9621 131.393 28.7784C129.727 27.5852 128.444 25.8665 127.544 23.6222C126.654 21.3684 126.209 18.6553 126.209 15.483C126.218 12.3106 126.668 9.61174 127.558 7.38636C128.458 5.15151 129.741 3.44697 131.408 2.27273C133.084 1.09848 135.087 0.511363 137.416 0.511363C139.746 0.511363 141.749 1.09848 143.425 2.27273C145.101 3.44697 146.384 5.15151 147.274 7.38636C148.174 9.62121 148.624 12.3201 148.624 15.483C148.624 18.6648 148.174 21.3826 147.274 23.6364C146.384 25.8807 145.101 27.5947 143.425 28.7784C141.758 29.9621 139.755 30.554 137.416 30.554ZM137.416 26.108C139.234 26.108 140.669 25.2131 141.72 23.4233C142.781 21.6241 143.311 18.9773 143.311 15.483C143.311 13.1723 143.07 11.2311 142.587 9.65909C142.104 8.08712 141.422 6.90341 140.541 6.10795C139.661 5.30303 138.619 4.90057 137.416 4.90057C135.607 4.90057 134.178 5.80019 133.126 7.59943C132.075 9.3892 131.545 12.017 131.536 15.483C131.526 17.803 131.758 19.7538 132.232 21.3352C132.714 22.9167 133.396 24.1098 134.277 24.9148C135.158 25.7102 136.204 26.108 137.416 26.108ZM164.096 30.554C161.757 30.554 159.749 29.9621 158.073 28.7784C156.406 27.5852 155.123 25.8665 154.224 23.6222C153.334 21.3684 152.888 18.6553 152.888 15.483C152.898 12.3106 153.348 9.61174 154.238 7.38636C155.138 5.15151 156.421 3.44697 158.087 2.27273C159.763 1.09848 161.766 0.511363 164.096 0.511363C166.425 0.511363 168.428 1.09848 170.104 2.27273C171.781 3.44697 173.064 5.15151 173.954 7.38636C174.853 9.62121 175.303 12.3201 175.303 15.483C175.303 18.6648 174.853 21.3826 173.954 23.6364C173.064 25.8807 171.781 27.5947 170.104 28.7784C168.438 29.9621 166.435 30.554 164.096 30.554ZM164.096 26.108C165.914 26.108 167.349 25.2131 168.4 23.4233C169.46 21.6241 169.991 18.9773 169.991 15.483C169.991 13.1723 169.749 11.2311 169.266 9.65909C168.783 8.08712 168.102 6.90341 167.221 6.10795C166.34 5.30303 165.299 4.90057 164.096 4.90057C162.287 4.90057 160.857 5.80019 159.806 7.59943C158.755 9.3892 158.225 12.017 158.215 15.483C158.206 17.803 158.438 19.7538 158.911 21.3352C159.394 22.9167 160.076 24.1098 160.957 24.9148C161.837 25.7102 162.884 26.108 164.096 26.108ZM190.776 30.554C188.437 30.554 186.429 29.9621 184.753 28.7784C183.086 27.5852 181.803 25.8665 180.903 23.6222C180.013 21.3684 179.568 18.6553 179.568 15.483C179.578 12.3106 180.027 9.61174 180.918 7.38636C181.817 5.15151 183.1 3.44697 184.767 2.27273C186.443 1.09848 188.446 0.511363 190.776 0.511363C193.105 0.511363 195.108 1.09848 196.784 2.27273C198.46 3.44697 199.743 5.15151 200.634 7.38636C201.533 9.62121 201.983 12.3201 201.983 15.483C201.983 18.6648 201.533 21.3826 200.634 23.6364C199.743 25.8807 198.46 27.5947 196.784 28.7784C195.117 29.9621 193.115 30.554 190.776 30.554ZM190.776 26.108C192.594 26.108 194.028 25.2131 195.08 23.4233C196.14 21.6241 196.67 18.9773 196.67 15.483C196.67 13.1723 196.429 11.2311 195.946 9.65909C195.463 8.08712 194.781 6.90341 193.901 6.10795C193.02 5.30303 191.978 4.90057 190.776 4.90057C188.967 4.90057 187.537 5.80019 186.486 7.59943C185.435 9.3892 184.904 12.017 184.895 15.483C184.885 17.803 185.117 19.7538 185.591 21.3352C186.074 22.9167 186.756 24.1098 187.636 24.9148C188.517 25.7102 189.563 26.108 190.776 26.108ZM0.534091 58V47.0909H2.15341V48.7955H2.29545C2.52273 48.2131 2.88968 47.7609 3.39631 47.4389C3.90294 47.1122 4.51136 46.9489 5.22159 46.9489C5.94129 46.9489 6.54025 47.1122 7.01847 47.4389C7.50142 47.7609 7.87784 48.2131 8.14773 48.7955H8.26136C8.54072 48.232 8.95975 47.7846 9.51847 47.4531C10.0772 47.117 10.7472 46.9489 11.5284 46.9489C12.5038 46.9489 13.3016 47.2543 13.9219 47.8651C14.5421 48.4711 14.8523 49.4157 14.8523 50.6989V58H13.1761V50.6989C13.1761 49.8939 12.956 49.3187 12.5156 48.973C12.0753 48.6274 11.5568 48.4545 10.9602 48.4545C10.1932 48.4545 9.59896 48.6866 9.17756 49.1506C8.75616 49.6098 8.54545 50.1922 8.54545 50.8977V58H6.84091V50.5284C6.84091 49.9081 6.63968 49.4086 6.23722 49.0298C5.83475 48.6463 5.31629 48.4545 4.68182 48.4545C4.24621 48.4545 3.83902 48.5705 3.46023 48.8026C3.08617 49.0346 2.78314 49.3565 2.55114 49.7685C2.32386 50.1757 2.21023 50.6468 2.21023 51.1818V58H0.534091ZM17.3771 50.7273V49.6193L20.701 46.6648C21.0324 46.3712 21.3094 46.1084 21.532 45.8764C21.7545 45.6444 21.9226 45.4195 22.0362 45.2017C22.1499 44.9839 22.2067 44.7519 22.2067 44.5057C22.2067 44.0795 22.0433 43.741 21.7166 43.4901C21.3899 43.2391 20.9851 43.1136 20.5021 43.1136C19.9908 43.1136 19.5788 43.2509 19.2663 43.5256C18.9538 43.7955 18.7976 44.1506 18.7976 44.5909H17.3203C17.3203 43.7812 17.621 43.1302 18.2223 42.6378C18.8236 42.1406 19.593 41.892 20.5305 41.892C21.1555 41.892 21.7048 42.0057 22.1783 42.233C22.6518 42.4555 23.0211 42.7633 23.2862 43.1562C23.5514 43.5445 23.6839 43.9848 23.6839 44.4773C23.6839 44.8655 23.6058 45.2254 23.4496 45.5568C23.2933 45.8883 23.0495 46.2315 22.718 46.5866C22.3866 46.9418 21.9605 47.3466 21.4396 47.8011L19.593 49.4205V49.4773H23.9396V50.7273H17.3771ZM36.5337 58.2273C35.4826 58.2273 34.5759 57.9953 33.8136 57.5312C33.056 57.0625 32.4712 56.4091 32.0593 55.571C31.6521 54.7282 31.4485 53.7481 31.4485 52.6307C31.4485 51.5133 31.6521 50.5284 32.0593 49.6761C32.4712 48.8191 33.0442 48.1515 33.7781 47.6733C34.5167 47.1903 35.3784 46.9489 36.3633 46.9489C36.9315 46.9489 37.4925 47.0436 38.0465 47.233C38.6005 47.4223 39.1048 47.7301 39.5593 48.1562C40.0138 48.5777 40.3761 49.1364 40.646 49.8324C40.9158 50.5284 41.0508 51.3854 41.0508 52.4034V53.1136H32.6417V51.6648H39.3462C39.3462 51.0492 39.2231 50.5 38.9769 50.017C38.7354 49.5341 38.3898 49.1529 37.94 48.8736C37.4949 48.5942 36.9693 48.4545 36.3633 48.4545C35.6957 48.4545 35.118 48.6203 34.6303 48.9517C34.1474 49.2784 33.7757 49.7045 33.5153 50.2301C33.2549 50.7557 33.1246 51.3191 33.1246 51.9205V52.8864C33.1246 53.7102 33.2667 54.4086 33.5508 54.9815C33.8396 55.5497 34.2397 55.983 34.7511 56.2812C35.2624 56.5748 35.8567 56.7216 36.5337 56.7216C36.9741 56.7216 37.3718 56.66 37.7269 56.5369C38.0868 56.4091 38.3969 56.2197 38.6573 55.9688C38.9177 55.7131 39.119 55.3958 39.261 55.017L40.8803 55.4716C40.7099 56.0208 40.4234 56.5038 40.021 56.9205C39.6185 57.3324 39.1213 57.6544 38.5295 57.8864C37.9376 58.1136 37.2724 58.2273 36.5337 58.2273ZM43.6005 58V47.0909H45.2198V48.7955H45.3619C45.5891 48.2131 45.9561 47.7609 46.4627 47.4389C46.9693 47.1122 47.5778 46.9489 48.288 46.9489C49.0077 46.9489 49.6067 47.1122 50.0849 47.4389C50.5678 47.7609 50.9442 48.2131 51.2141 48.7955H51.3278C51.6071 48.232 52.0262 47.7846 52.5849 47.4531C53.1436 47.117 53.8136 46.9489 54.5948 46.9489C55.5702 46.9489 56.368 47.2543 56.9883 47.8651C57.6085 48.4711 57.9187 49.4157 57.9187 50.6989V58H56.2425V50.6989C56.2425 49.8939 56.0224 49.3187 55.582 48.973C55.1417 48.6274 54.6232 48.4545 54.0266 48.4545C53.2596 48.4545 52.6654 48.6866 52.244 49.1506C51.8226 49.6098 51.6119 50.1922 51.6119 50.8977V58H49.9073V50.5284C49.9073 49.9081 49.7061 49.4086 49.3036 49.0298C48.9012 48.6463 48.3827 48.4545 47.7482 48.4545C47.3126 48.4545 46.9054 48.5705 46.5266 48.8026C46.1526 49.0346 45.8496 49.3565 45.6175 49.7685C45.3903 50.1757 45.2766 50.6468 45.2766 51.1818V58H43.6005ZM66.6083 62.0909V47.0909H68.2276V48.8239H68.4265C68.5496 48.6345 68.7201 48.393 68.9379 48.0994C69.1604 47.8011 69.4776 47.536 69.8896 47.304C70.3062 47.0672 70.8697 46.9489 71.5799 46.9489C72.4985 46.9489 73.3081 47.1785 74.0089 47.6378C74.7096 48.0971 75.2565 48.7481 75.6495 49.5909C76.0425 50.4337 76.239 51.428 76.239 52.5739C76.239 53.7292 76.0425 54.7306 75.6495 55.5781C75.2565 56.4209 74.712 57.0743 74.016 57.5384C73.32 57.9976 72.5174 58.2273 71.6083 58.2273C70.9076 58.2273 70.3465 58.1113 69.9251 57.8793C69.5037 57.6425 69.1793 57.375 68.9521 57.0767C68.7248 56.7737 68.5496 56.5227 68.4265 56.3239H68.2844V62.0909H66.6083ZM68.256 52.5455C68.256 53.3693 68.3768 54.0961 68.6183 54.7259C68.8597 55.3509 69.2125 55.8409 69.6765 56.196C70.1405 56.5464 70.7087 56.7216 71.381 56.7216C72.0818 56.7216 72.6665 56.5369 73.1353 56.1676C73.6088 55.7936 73.9639 55.2917 74.2006 54.6619C74.4421 54.0275 74.5629 53.322 74.5629 52.5455C74.5629 51.7784 74.4445 51.0871 74.2077 50.4716C73.9757 49.8513 73.623 49.3613 73.1495 49.0014C72.6808 48.6368 72.0913 48.4545 71.381 48.4545C70.6992 48.4545 70.1263 48.6274 69.6623 48.973C69.1983 49.3139 68.8479 49.7921 68.6112 50.4077C68.3744 51.0185 68.256 51.7311 68.256 52.5455ZM78.7958 58V47.0909H80.4151V48.7386H80.5288C80.7276 48.1989 81.0875 47.7609 81.6083 47.4247C82.1291 47.0885 82.7163 46.9205 83.3697 46.9205C83.4928 46.9205 83.6467 46.9228 83.8313 46.9276C84.016 46.9323 84.1557 46.9394 84.2504 46.9489V48.6534C84.1935 48.6392 84.0633 48.6179 83.8597 48.5895C83.6609 48.5563 83.4502 48.5398 83.2276 48.5398C82.6973 48.5398 82.2238 48.651 81.8072 48.8736C81.3952 49.0914 81.0685 49.3944 80.8271 49.7827C80.5903 50.1662 80.4719 50.6042 80.4719 51.0966V58H78.7958ZM90.337 58.2273C89.3522 58.2273 88.488 57.9929 87.7447 57.5241C87.006 57.0554 86.4284 56.3996 86.0117 55.5568C85.5998 54.714 85.3938 53.7292 85.3938 52.6023C85.3938 51.4659 85.5998 50.474 86.0117 49.6264C86.4284 48.7789 87.006 48.1207 87.7447 47.652C88.488 47.1832 89.3522 46.9489 90.337 46.9489C91.3219 46.9489 92.1836 47.1832 92.9222 47.652C93.6656 48.1207 94.2433 48.7789 94.6552 49.6264C95.0719 50.474 95.2802 51.4659 95.2802 52.6023C95.2802 53.7292 95.0719 54.714 94.6552 55.5568C94.2433 56.3996 93.6656 57.0554 92.9222 57.5241C92.1836 57.9929 91.3219 58.2273 90.337 58.2273ZM90.337 56.7216C91.0851 56.7216 91.7006 56.5298 92.1836 56.1463C92.6665 55.7628 93.024 55.2585 93.256 54.6335C93.488 54.0085 93.604 53.3314 93.604 52.6023C93.604 51.8731 93.488 51.1937 93.256 50.5639C93.024 49.9342 92.6665 49.4252 92.1836 49.0369C91.7006 48.6487 91.0851 48.4545 90.337 48.4545C89.5889 48.4545 88.9734 48.6487 88.4904 49.0369C88.0075 49.4252 87.65 49.9342 87.418 50.5639C87.186 51.1937 87.07 51.8731 87.07 52.6023C87.07 53.3314 87.186 54.0085 87.418 54.6335C87.65 55.2585 88.0075 55.7628 88.4904 56.1463C88.9734 56.5298 89.5889 56.7216 90.337 56.7216ZM97.8388 47.0909H99.5149V58.7955C99.5149 59.4678 99.3989 60.0502 99.1669 60.5426C98.9396 61.035 98.594 61.4162 98.13 61.6861C97.6707 61.956 97.0907 62.0909 96.3899 62.0909C96.3331 62.0909 96.2763 62.0909 96.2195 62.0909C96.1626 62.0909 96.1058 62.0909 96.049 62.0909V60.5284C96.1058 60.5284 96.1579 60.5284 96.2053 60.5284C96.2526 60.5284 96.3047 60.5284 96.3615 60.5284C96.8729 60.5284 97.2469 60.3769 97.4837 60.0739C97.7204 59.7756 97.8388 59.3494 97.8388 58.7955V47.0909ZM98.6626 45.2727C98.3359 45.2727 98.0542 45.1615 97.8175 44.9389C97.5855 44.7164 97.4695 44.4489 97.4695 44.1364C97.4695 43.8239 97.5855 43.5563 97.8175 43.3338C98.0542 43.1113 98.3359 43 98.6626 43C98.9893 43 99.2687 43.1113 99.5007 43.3338C99.7375 43.5563 99.8558 43.8239 99.8558 44.1364C99.8558 44.4489 99.7375 44.7164 99.5007 44.9389C99.2687 45.1615 98.9893 45.2727 98.6626 45.2727ZM107.159 58.2273C106.108 58.2273 105.201 57.9953 104.439 57.5312C103.681 57.0625 103.096 56.4091 102.684 55.571C102.277 54.7282 102.074 53.7481 102.074 52.6307C102.074 51.5133 102.277 50.5284 102.684 49.6761C103.096 48.8191 103.669 48.1515 104.403 47.6733C105.142 47.1903 106.003 46.9489 106.988 46.9489C107.556 46.9489 108.118 47.0436 108.672 47.233C109.225 47.4223 109.73 47.7301 110.184 48.1562C110.639 48.5777 111.001 49.1364 111.271 49.8324C111.541 50.5284 111.676 51.3854 111.676 52.4034V53.1136H103.267V51.6648H109.971C109.971 51.0492 109.848 50.5 109.602 50.017C109.36 49.5341 109.015 49.1529 108.565 48.8736C108.12 48.5942 107.594 48.4545 106.988 48.4545C106.321 48.4545 105.743 48.6203 105.255 48.9517C104.772 49.2784 104.401 49.7045 104.14 50.2301C103.88 50.7557 103.75 51.3191 103.75 51.9205V52.8864C103.75 53.7102 103.892 54.4086 104.176 54.9815C104.465 55.5497 104.865 55.983 105.376 56.2812C105.887 56.5748 106.482 56.7216 107.159 56.7216C107.599 56.7216 107.997 56.66 108.352 56.5369C108.712 56.4091 109.022 56.2197 109.282 55.9688C109.543 55.7131 109.744 55.3958 109.886 55.017L111.505 55.4716C111.335 56.0208 111.048 56.5038 110.646 56.9205C110.243 57.3324 109.746 57.6544 109.154 57.8864C108.563 58.1136 107.897 58.2273 107.159 58.2273ZM118.97 47.0909V48.5114H113.316V47.0909H118.97ZM114.964 44.4773H116.64V54.875C116.64 55.3485 116.709 55.7036 116.846 55.9403C116.988 56.1723 117.168 56.3286 117.386 56.4091C117.609 56.4848 117.843 56.5227 118.089 56.5227C118.274 56.5227 118.425 56.5133 118.544 56.4943C118.662 56.4706 118.757 56.4517 118.828 56.4375L119.169 57.9432C119.055 57.9858 118.896 58.0284 118.693 58.071C118.489 58.1184 118.231 58.142 117.919 58.142C117.445 58.142 116.981 58.0402 116.527 57.8366C116.077 57.633 115.703 57.3229 115.404 56.9062C115.111 56.4896 114.964 55.964 114.964 55.3295V44.4773ZM125.806 58.2273C124.821 58.2273 123.957 57.9929 123.213 57.5241C122.475 57.0554 121.897 56.3996 121.48 55.5568C121.069 54.714 120.863 53.7292 120.863 52.6023C120.863 51.4659 121.069 50.474 121.48 49.6264C121.897 48.7789 122.475 48.1207 123.213 47.652C123.957 47.1832 124.821 46.9489 125.806 46.9489C126.791 46.9489 127.652 47.1832 128.391 47.652C129.134 48.1207 129.712 48.7789 130.124 49.6264C130.541 50.474 130.749 51.4659 130.749 52.6023C130.749 53.7292 130.541 54.714 130.124 55.5568C129.712 56.3996 129.134 57.0554 128.391 57.5241C127.652 57.9929 126.791 58.2273 125.806 58.2273ZM125.806 56.7216C126.554 56.7216 127.169 56.5298 127.652 56.1463C128.135 55.7628 128.493 55.2585 128.725 54.6335C128.957 54.0085 129.073 53.3314 129.073 52.6023C129.073 51.8731 128.957 51.1937 128.725 50.5639C128.493 49.9342 128.135 49.4252 127.652 49.0369C127.169 48.6487 126.554 48.4545 125.806 48.4545C125.058 48.4545 124.442 48.6487 123.959 49.0369C123.476 49.4252 123.119 49.9342 122.887 50.5639C122.655 51.1937 122.539 51.8731 122.539 52.6023C122.539 53.3314 122.655 54.0085 122.887 54.6335C123.119 55.2585 123.476 55.7628 123.959 56.1463C124.442 56.5298 125.058 56.7216 125.806 56.7216ZM141.035 49.5341L139.529 49.9602C139.434 49.7093 139.295 49.4654 139.11 49.2287C138.93 48.9872 138.684 48.7884 138.371 48.6321C138.059 48.4759 137.659 48.3977 137.171 48.3977C136.504 48.3977 135.947 48.5516 135.502 48.8594C135.062 49.1624 134.842 49.5483 134.842 50.017C134.842 50.4337 134.993 50.7628 135.296 51.0043C135.599 51.2457 136.073 51.447 136.717 51.608L138.336 52.0057C139.311 52.2424 140.038 52.6046 140.516 53.0923C140.995 53.5753 141.234 54.1979 141.234 54.9602C141.234 55.5852 141.054 56.1439 140.694 56.6364C140.339 57.1288 139.842 57.517 139.202 57.8011C138.563 58.0852 137.82 58.2273 136.972 58.2273C135.86 58.2273 134.939 57.9858 134.21 57.5028C133.48 57.0199 133.019 56.3144 132.825 55.3864L134.415 54.9886C134.567 55.5758 134.853 56.0161 135.275 56.3097C135.701 56.6032 136.257 56.75 136.944 56.75C137.725 56.75 138.345 56.5843 138.805 56.2528C139.269 55.9167 139.501 55.5142 139.501 55.0455C139.501 54.6667 139.368 54.3494 139.103 54.0938C138.838 53.8333 138.431 53.6392 137.881 53.5114L136.063 53.0852C135.064 52.8485 134.33 52.4815 133.862 51.9844C133.397 51.4825 133.165 50.8551 133.165 50.1023C133.165 49.4867 133.338 48.9422 133.684 48.4688C134.034 47.9953 134.51 47.6236 135.112 47.3537C135.718 47.0838 136.404 46.9489 137.171 46.9489C138.251 46.9489 139.098 47.1856 139.714 47.6591C140.334 48.1326 140.774 48.7576 141.035 49.5341ZM153.814 58.2273C152.791 58.2273 151.91 57.9858 151.172 57.5028C150.433 57.0199 149.865 56.3546 149.467 55.5071C149.069 54.6596 148.87 53.6913 148.87 52.6023C148.87 51.4943 149.074 50.5166 149.481 49.669C149.893 48.8168 150.466 48.1515 151.2 47.6733C151.939 47.1903 152.8 46.9489 153.785 46.9489C154.552 46.9489 155.243 47.0909 155.859 47.375C156.475 47.6591 156.979 48.0568 157.372 48.5682C157.765 49.0795 158.009 49.6761 158.103 50.358H156.427C156.299 49.8608 156.015 49.4205 155.575 49.0369C155.139 48.6487 154.552 48.4545 153.814 48.4545C153.16 48.4545 152.587 48.625 152.095 48.9659C151.607 49.3021 151.226 49.7779 150.951 50.3935C150.681 51.0043 150.547 51.7216 150.547 52.5455C150.547 53.3883 150.679 54.1222 150.944 54.7472C151.214 55.3722 151.593 55.8575 152.081 56.2031C152.573 56.5488 153.151 56.7216 153.814 56.7216C154.249 56.7216 154.645 56.6458 155 56.4943C155.355 56.3428 155.655 56.125 155.902 55.8409C156.148 55.5568 156.323 55.2159 156.427 54.8182H158.103C158.009 55.4621 157.774 56.0421 157.4 56.5582C157.031 57.0696 156.541 57.4768 155.93 57.7798C155.324 58.0781 154.618 58.2273 153.814 58.2273ZM164.985 58.2273C164.001 58.2273 163.136 57.9929 162.393 57.5241C161.654 57.0554 161.077 56.3996 160.66 55.5568C160.248 54.714 160.042 53.7292 160.042 52.6023C160.042 51.4659 160.248 50.474 160.66 49.6264C161.077 48.7789 161.654 48.1207 162.393 47.652C163.136 47.1832 164.001 46.9489 164.985 46.9489C165.97 46.9489 166.832 47.1832 167.571 47.652C168.314 48.1207 168.892 48.7789 169.304 49.6264C169.72 50.474 169.929 51.4659 169.929 52.6023C169.929 53.7292 169.72 54.714 169.304 55.5568C168.892 56.3996 168.314 57.0554 167.571 57.5241C166.832 57.9929 165.97 58.2273 164.985 58.2273ZM164.985 56.7216C165.734 56.7216 166.349 56.5298 166.832 56.1463C167.315 55.7628 167.672 55.2585 167.904 54.6335C168.136 54.0085 168.252 53.3314 168.252 52.6023C168.252 51.8731 168.136 51.1937 167.904 50.5639C167.672 49.9342 167.315 49.4252 166.832 49.0369C166.349 48.6487 165.734 48.4545 164.985 48.4545C164.237 48.4545 163.622 48.6487 163.139 49.0369C162.656 49.4252 162.298 49.9342 162.066 50.5639C161.834 51.1937 161.718 51.8731 161.718 52.6023C161.718 53.3314 161.834 54.0085 162.066 54.6335C162.298 55.2585 162.656 55.7628 163.139 56.1463C163.622 56.5298 164.237 56.7216 164.985 56.7216ZM174.163 51.4375V58H172.487V47.0909H174.107V48.7955H174.249C174.504 48.2415 174.893 47.7964 175.413 47.4602C175.934 47.1193 176.607 46.9489 177.43 46.9489C178.169 46.9489 178.815 47.1004 179.369 47.4034C179.923 47.7017 180.354 48.1562 180.662 48.767C180.97 49.3731 181.124 50.1402 181.124 51.0682V58H179.447V51.1818C179.447 50.3248 179.225 49.6572 178.78 49.179C178.335 48.696 177.724 48.4545 176.947 48.4545C176.412 48.4545 175.934 48.5705 175.513 48.8026C175.096 49.0346 174.767 49.3731 174.526 49.8182C174.284 50.2633 174.163 50.803 174.163 51.4375ZM191.914 49.5341L190.408 49.9602C190.313 49.7093 190.174 49.4654 189.989 49.2287C189.809 48.9872 189.563 48.7884 189.25 48.6321C188.938 48.4759 188.538 48.3977 188.05 48.3977C187.382 48.3977 186.826 48.5516 186.381 48.8594C185.941 49.1624 185.721 49.5483 185.721 50.017C185.721 50.4337 185.872 50.7628 186.175 51.0043C186.478 51.2457 186.952 51.447 187.596 51.608L189.215 52.0057C190.19 52.2424 190.917 52.6046 191.395 53.0923C191.873 53.5753 192.113 54.1979 192.113 54.9602C192.113 55.5852 191.933 56.1439 191.573 56.6364C191.218 57.1288 190.721 57.517 190.081 57.8011C189.442 58.0852 188.699 58.2273 187.851 58.2273C186.739 58.2273 185.818 57.9858 185.088 57.5028C184.359 57.0199 183.898 56.3144 183.703 55.3864L185.294 54.9886C185.446 55.5758 185.732 56.0161 186.154 56.3097C186.58 56.6032 187.136 56.75 187.823 56.75C188.604 56.75 189.224 56.5843 189.684 56.2528C190.148 55.9167 190.38 55.5142 190.38 55.0455C190.38 54.6667 190.247 54.3494 189.982 54.0938C189.717 53.8333 189.31 53.6392 188.76 53.5114L186.942 53.0852C185.943 52.8485 185.209 52.4815 184.74 51.9844C184.276 51.4825 184.044 50.8551 184.044 50.1023C184.044 49.4867 184.217 48.9422 184.563 48.4688C184.913 47.9953 185.389 47.6236 185.99 47.3537C186.596 47.0838 187.283 46.9489 188.05 46.9489C189.13 46.9489 189.977 47.1856 190.593 47.6591C191.213 48.1326 191.653 48.7576 191.914 49.5341ZM199.38 47.0909V48.5114H193.727V47.0909H199.38ZM195.374 44.4773H197.05V54.875C197.05 55.3485 197.119 55.7036 197.256 55.9403C197.398 56.1723 197.578 56.3286 197.796 56.4091C198.019 56.4848 198.253 56.5227 198.499 56.5227C198.684 56.5227 198.835 56.5133 198.954 56.4943C199.072 56.4706 199.167 56.4517 199.238 56.4375L199.579 57.9432C199.465 57.9858 199.307 58.0284 199.103 58.071C198.899 58.1184 198.641 58.142 198.329 58.142C197.855 58.142 197.391 58.0402 196.937 57.8366C196.487 57.633 196.113 57.3229 195.815 56.9062C195.521 56.4896 195.374 55.964 195.374 55.3295V44.4773ZM201.901 58V47.0909H203.521V48.7386H203.634C203.833 48.1989 204.193 47.7609 204.714 47.4247C205.235 47.0885 205.822 46.9205 206.475 46.9205C206.598 46.9205 206.752 46.9228 206.937 46.9276C207.121 46.9323 207.261 46.9394 207.356 46.9489V48.6534C207.299 48.6392 207.169 48.6179 206.965 48.5895C206.766 48.5563 206.556 48.5398 206.333 48.5398C205.803 48.5398 205.329 48.651 204.913 48.8736C204.501 49.0914 204.174 49.3944 203.933 49.7827C203.696 50.1662 203.577 50.6042 203.577 51.0966V58H201.901ZM216.218 53.5398V47.0909H217.894V58H216.218V56.1534H216.104C215.848 56.7074 215.451 57.1785 214.911 57.5668C214.371 57.9503 213.689 58.142 212.865 58.142C212.184 58.142 211.578 57.9929 211.047 57.6946C210.517 57.3916 210.1 56.937 209.797 56.331C209.494 55.7202 209.343 54.9508 209.343 54.0227V47.0909H211.019V53.9091C211.019 54.7045 211.241 55.339 211.686 55.8125C212.136 56.286 212.709 56.5227 213.405 56.5227C213.822 56.5227 214.246 56.4162 214.676 56.2031C215.112 55.9901 215.477 55.6634 215.77 55.223C216.069 54.7827 216.218 54.2216 216.218 53.5398ZM220.964 58V47.0909H222.64V58H220.964ZM221.049 45.6136L222.782 42.3182H224.742L222.526 45.6136H221.049ZM229.829 58.2273C228.92 58.2273 228.118 57.9976 227.422 57.5384C226.725 57.0743 226.181 56.4209 225.788 55.5781C225.395 54.7306 225.199 53.7292 225.199 52.5739C225.199 51.428 225.395 50.4337 225.788 49.5909C226.181 48.7481 226.728 48.0971 227.429 47.6378C228.129 47.1785 228.939 46.9489 229.858 46.9489C230.568 46.9489 231.129 47.0672 231.541 47.304C231.958 47.536 232.275 47.8011 232.493 48.0994C232.715 48.393 232.888 48.6345 233.011 48.8239H233.153V43.4545H234.829V58H233.21V56.3239H233.011C232.888 56.5227 232.713 56.7737 232.485 57.0767C232.258 57.375 231.934 57.6425 231.512 57.8793C231.091 58.1113 230.53 58.2273 229.829 58.2273ZM230.056 56.7216C230.729 56.7216 231.297 56.5464 231.761 56.196C232.225 55.8409 232.578 55.3509 232.819 54.7259C233.061 54.0961 233.181 53.3693 233.181 52.5455C233.181 51.7311 233.063 51.0185 232.826 50.4077C232.59 49.7921 232.239 49.3139 231.775 48.973C231.311 48.6274 230.738 48.4545 230.056 48.4545C229.346 48.4545 228.754 48.6368 228.281 49.0014C227.812 49.3613 227.459 49.8513 227.223 50.4716C226.991 51.0871 226.875 51.7784 226.875 52.5455C226.875 53.322 226.993 54.0275 227.23 54.6619C227.471 55.2917 227.826 55.7936 228.295 56.1676C228.769 56.5369 229.356 56.7216 230.056 56.7216ZM242.564 58.2273C241.579 58.2273 240.715 57.9929 239.971 57.5241C239.233 57.0554 238.655 56.3996 238.238 55.5568C237.826 54.714 237.62 53.7292 237.62 52.6023C237.62 51.4659 237.826 50.474 238.238 49.6264C238.655 48.7789 239.233 48.1207 239.971 47.652C240.715 47.1832 241.579 46.9489 242.564 46.9489C243.548 46.9489 244.41 47.1832 245.149 47.652C245.892 48.1207 246.47 48.7789 246.882 49.6264C247.298 50.474 247.507 51.4659 247.507 52.6023C247.507 53.7292 247.298 54.714 246.882 55.5568C246.47 56.3996 245.892 57.0554 245.149 57.5241C244.41 57.9929 243.548 58.2273 242.564 58.2273ZM242.564 56.7216C243.312 56.7216 243.927 56.5298 244.41 56.1463C244.893 55.7628 245.251 55.2585 245.483 54.6335C245.715 54.0085 245.831 53.3314 245.831 52.6023C245.831 51.8731 245.715 51.1937 245.483 50.5639C245.251 49.9342 244.893 49.4252 244.41 49.0369C243.927 48.6487 243.312 48.4545 242.564 48.4545C241.815 48.4545 241.2 48.6487 240.717 49.0369C240.234 49.4252 239.877 49.9342 239.645 50.5639C239.413 51.1937 239.297 51.8731 239.297 52.6023C239.297 53.3314 239.413 54.0085 239.645 54.6335C239.877 55.2585 240.234 55.7628 240.717 56.1463C241.2 56.5298 241.815 56.7216 242.564 56.7216ZM257.793 49.5341L256.287 49.9602C256.192 49.7093 256.053 49.4654 255.868 49.2287C255.688 48.9872 255.442 48.7884 255.129 48.6321C254.817 48.4759 254.417 48.3977 253.929 48.3977C253.261 48.3977 252.705 48.5516 252.26 48.8594C251.82 49.1624 251.599 49.5483 251.599 50.017C251.599 50.4337 251.751 50.7628 252.054 51.0043C252.357 51.2457 252.83 51.447 253.474 51.608L255.094 52.0057C256.069 52.2424 256.796 52.6046 257.274 53.0923C257.752 53.5753 257.991 54.1979 257.991 54.9602C257.991 55.5852 257.812 56.1439 257.452 56.6364C257.097 57.1288 256.599 57.517 255.96 57.8011C255.321 58.0852 254.578 58.2273 253.73 58.2273C252.617 58.2273 251.696 57.9858 250.967 57.5028C250.238 57.0199 249.777 56.3144 249.582 55.3864L251.173 54.9886C251.325 55.5758 251.611 56.0161 252.033 56.3097C252.459 56.6032 253.015 56.75 253.702 56.75C254.483 56.75 255.103 56.5843 255.562 56.2528C256.027 55.9167 256.259 55.5142 256.259 55.0455C256.259 54.6667 256.126 54.3494 255.861 54.0938C255.596 53.8333 255.188 53.6392 254.639 53.5114L252.821 53.0852C251.822 52.8485 251.088 52.4815 250.619 51.9844C250.155 51.4825 249.923 50.8551 249.923 50.1023C249.923 49.4867 250.096 48.9422 250.442 48.4688C250.792 47.9953 251.268 47.6236 251.869 47.3537C252.475 47.0838 253.162 46.9489 253.929 46.9489C255.009 46.9489 255.856 47.1856 256.472 47.6591C257.092 48.1326 257.532 48.7576 257.793 49.5341Z" fill="black"/>
</svg>
