<svg width="293" height="63" viewBox="0 0 293 63" fill="none" xmlns="http://www.w3.org/2000/svg">
<path d="M1.05966 24.6023V20.4119L13.4034 0.90909H16.8977V6.875H14.767L6.45739 20.0426V20.2699H23.6875V24.6023H1.05966ZM14.9375 30V23.3239L14.9943 21.4489V0.90909H19.9659V30H14.9375ZM38.9787 30.554C36.6397 30.554 34.6321 29.9621 32.956 28.7784C31.2893 27.5852 30.0062 25.8665 29.1065 23.6222C28.2164 21.3684 27.7713 18.6553 27.7713 15.483C27.7808 12.3106 28.2306 9.61174 29.1207 7.38636C30.0204 5.15151 31.3035 3.44697 32.9702 2.27273C34.6463 1.09848 36.6491 0.511363 38.9787 0.511363C41.3082 0.511363 43.3111 1.09848 44.9872 2.27273C46.6634 3.44697 47.9465 5.15151 48.8366 7.38636C49.7363 9.62121 50.1861 12.3201 50.1861 15.483C50.1861 18.6648 49.7363 21.3826 48.8366 23.6364C47.9465 25.8807 46.6634 27.5947 44.9872 28.7784C43.3205 29.9621 41.3177 30.554 38.9787 30.554ZM38.9787 26.108C40.7969 26.108 42.2315 25.2131 43.2827 23.4233C44.3433 21.6241 44.8736 18.9773 44.8736 15.483C44.8736 13.1723 44.6321 11.2311 44.1491 9.65909C43.6662 8.08712 42.9844 6.90341 42.1037 6.10795C41.223 5.30303 40.1813 4.90057 38.9787 4.90057C37.17 4.90057 35.7401 5.80019 34.6889 7.59943C33.6378 9.3892 33.1075 12.017 33.098 15.483C33.0885 17.803 33.3205 19.7538 33.794 21.3352C34.277 22.9167 34.9588 24.1098 35.8395 24.9148C36.7202 25.7102 37.7666 26.108 38.9787 26.108ZM3.74432 58.2557C3.05303 58.2557 2.42566 58.1255 1.86222 57.8651C1.29877 57.5999 0.851326 57.2188 0.519886 56.7216C0.188447 56.2197 0.0227273 55.6136 0.0227273 54.9034C0.0227273 54.2784 0.145833 53.7718 0.392045 53.3835C0.638258 52.9905 0.96733 52.6828 1.37926 52.4602C1.79119 52.2377 2.24574 52.072 2.7429 51.9631C3.24479 51.8494 3.74905 51.7595 4.25568 51.6932C4.91856 51.608 5.45597 51.544 5.8679 51.5014C6.28456 51.4541 6.58759 51.3759 6.77699 51.267C6.97112 51.1581 7.06818 50.9687 7.06818 50.6989V50.642C7.06818 49.9413 6.87642 49.3968 6.4929 49.0085C6.11411 48.6203 5.53883 48.4261 4.76705 48.4261C3.96686 48.4261 3.33949 48.6013 2.88494 48.9517C2.4304 49.3021 2.1108 49.6761 1.92614 50.0739L0.335227 49.5057C0.619318 48.8428 0.998106 48.3267 1.47159 47.9574C1.94981 47.5833 2.47064 47.3229 3.03409 47.1761C3.60227 47.0246 4.16098 46.9489 4.71023 46.9489C5.06061 46.9489 5.46307 46.9915 5.91761 47.0767C6.37689 47.1572 6.8196 47.3253 7.24574 47.581C7.67661 47.8366 8.03409 48.2225 8.31818 48.7386C8.60227 49.2547 8.74432 49.946 8.74432 50.8125V58H7.06818V56.5227H6.98295C6.86932 56.7595 6.67992 57.0128 6.41477 57.2827C6.14962 57.5526 5.79688 57.7822 5.35653 57.9716C4.91619 58.161 4.37879 58.2557 3.74432 58.2557ZM4 56.75C4.66288 56.75 5.22159 56.6198 5.67614 56.3594C6.13542 56.099 6.48106 55.7628 6.71307 55.3509C6.94981 54.9389 7.06818 54.5057 7.06818 54.0511V52.517C6.99716 52.6023 6.84091 52.6804 6.59943 52.7514C6.36269 52.8177 6.08807 52.8769 5.77557 52.929C5.4678 52.9763 5.16714 53.0189 4.87358 53.0568C4.58475 53.09 4.35038 53.1184 4.17045 53.142C3.73485 53.1989 3.32765 53.2912 2.94886 53.419C2.57481 53.5421 2.27178 53.7292 2.03977 53.9801C1.8125 54.2263 1.69886 54.5625 1.69886 54.9886C1.69886 55.571 1.9143 56.0114 2.34517 56.3097C2.78078 56.6032 3.33239 56.75 4 56.75ZM13.4798 51.4375V58H11.8036V47.0909H13.4229V48.7955H13.565C13.8207 48.2415 14.2089 47.7964 14.7298 47.4602C15.2506 47.1193 15.9229 46.9489 16.7468 46.9489C17.4854 46.9489 18.1317 47.1004 18.6857 47.4034C19.2397 47.7017 19.6706 48.1562 19.9783 48.767C20.2861 49.3731 20.44 50.1402 20.44 51.0682V58H18.7638V51.1818C18.7638 50.3248 18.5413 49.6572 18.0962 49.179C17.6512 48.696 17.0404 48.4545 16.2638 48.4545C15.7288 48.4545 15.2506 48.5705 14.8292 48.8026C14.4125 49.0346 14.0835 49.3731 13.842 49.8182C13.6005 50.2633 13.4798 50.803 13.4798 51.4375ZM27.9347 58.2273C26.9498 58.2273 26.0857 57.9929 25.3423 57.5241C24.6037 57.0554 24.026 56.3996 23.6094 55.5568C23.1974 54.714 22.9915 53.7292 22.9915 52.6023C22.9915 51.4659 23.1974 50.474 23.6094 49.6264C24.026 48.7789 24.6037 48.1207 25.3423 47.652C26.0857 47.1832 26.9498 46.9489 27.9347 46.9489C28.9195 46.9489 29.7813 47.1832 30.5199 47.652C31.2633 48.1207 31.8409 48.7789 32.2528 49.6264C32.6695 50.474 32.8778 51.4659 32.8778 52.6023C32.8778 53.7292 32.6695 54.714 32.2528 55.5568C31.8409 56.3996 31.2633 57.0554 30.5199 57.5241C29.7813 57.9929 28.9195 58.2273 27.9347 58.2273ZM27.9347 56.7216C28.6828 56.7216 29.2983 56.5298 29.7812 56.1463C30.2642 55.7628 30.6217 55.2585 30.8537 54.6335C31.0857 54.0085 31.2017 53.3314 31.2017 52.6023C31.2017 51.8731 31.0857 51.1937 30.8537 50.5639C30.6217 49.9342 30.2642 49.4252 29.7812 49.0369C29.2983 48.6487 28.6828 48.4545 27.9347 48.4545C27.1866 48.4545 26.571 48.6487 26.0881 49.0369C25.6051 49.4252 25.2476 49.9342 25.0156 50.5639C24.7836 51.1937 24.6676 51.8731 24.6676 52.6023C24.6676 53.3314 24.7836 54.0085 25.0156 54.6335C25.2476 55.2585 25.6051 55.7628 26.0881 56.1463C26.571 56.5298 27.1866 56.7216 27.9347 56.7216ZM43.1637 49.5341L41.658 49.9602C41.5633 49.7093 41.4237 49.4654 41.239 49.2287C41.0591 48.9872 40.8129 48.7884 40.5004 48.6321C40.1879 48.4759 39.7878 48.3977 39.3001 48.3977C38.6325 48.3977 38.0761 48.5516 37.631 48.8594C37.1907 49.1624 36.9705 49.5483 36.9705 50.017C36.9705 50.4337 37.122 50.7628 37.4251 51.0043C37.7281 51.2457 38.2016 51.447 38.8455 51.608L40.4648 52.0057C41.4402 52.2424 42.167 52.6046 42.6452 53.0923C43.1235 53.5753 43.3626 54.1979 43.3626 54.9602C43.3626 55.5852 43.1826 56.1439 42.8228 56.6364C42.4677 57.1288 41.9705 57.517 41.3313 57.8011C40.6921 58.0852 39.9487 58.2273 39.1012 58.2273C37.9885 58.2273 37.0676 57.9858 36.3384 57.5028C35.6093 57.0199 35.1476 56.3144 34.9535 55.3864L36.5444 54.9886C36.6959 55.5758 36.9824 56.0161 37.4038 56.3097C37.8299 56.6032 38.3862 56.75 39.0728 56.75C39.854 56.75 40.4743 56.5843 40.9336 56.2528C41.3976 55.9167 41.6296 55.5142 41.6296 55.0455C41.6296 54.6667 41.497 54.3494 41.2319 54.0938C40.9667 53.8333 40.5595 53.6392 40.0103 53.5114L38.1921 53.0852C37.1931 52.8485 36.4592 52.4815 35.9904 51.9844C35.5264 51.4825 35.2944 50.8551 35.2944 50.1023C35.2944 49.4867 35.4672 48.9422 35.8129 48.4688C36.1632 47.9953 36.6391 47.6236 37.2404 47.3537C37.8465 47.0838 38.533 46.9489 39.3001 46.9489C40.3796 46.9489 41.2272 47.1856 41.8427 47.6591C42.4629 48.1326 42.9033 48.7576 43.1637 49.5341ZM55.63 58.2273C54.7209 58.2273 53.9183 57.9976 53.2223 57.5384C52.5263 57.0743 51.9818 56.4209 51.5888 55.5781C51.1958 54.7306 50.9993 53.7292 50.9993 52.5739C50.9993 51.428 51.1958 50.4337 51.5888 49.5909C51.9818 48.7481 52.5286 48.0971 53.2294 47.6378C53.9302 47.1785 54.7398 46.9489 55.6584 46.9489C56.3686 46.9489 56.9297 47.0672 57.3416 47.304C57.7583 47.536 58.0755 47.8011 58.2933 48.0994C58.5159 48.393 58.6887 48.6345 58.8118 48.8239H58.9538V43.4545H60.63V58H59.0107V56.3239H58.8118C58.6887 56.5227 58.5135 56.7737 58.2862 57.0767C58.0589 57.375 57.7346 57.6425 57.3132 57.8793C56.8918 58.1113 56.3307 58.2273 55.63 58.2273ZM55.8572 56.7216C56.5296 56.7216 57.0978 56.5464 57.5618 56.196C58.0258 55.8409 58.3786 55.3509 58.62 54.7259C58.8615 54.0961 58.9822 53.3693 58.9822 52.5455C58.9822 51.7311 58.8639 51.0185 58.6271 50.4077C58.3904 49.7921 58.04 49.3139 57.576 48.973C57.112 48.6274 56.5391 48.4545 55.8572 48.4545C55.147 48.4545 54.5552 48.6368 54.0817 49.0014C53.6129 49.3613 53.2602 49.8513 53.0234 50.4716C52.7914 51.0871 52.6754 51.7784 52.6754 52.5455C52.6754 53.322 52.7938 54.0275 53.0305 54.6619C53.272 55.2917 53.6271 55.7936 54.0959 56.1676C54.5694 56.5369 55.1565 56.7216 55.8572 56.7216ZM68.5064 58.2273C67.4553 58.2273 66.5485 57.9953 65.7862 57.5312C65.0286 57.0625 64.4439 56.4091 64.032 55.571C63.6248 54.7282 63.4212 53.7481 63.4212 52.6307C63.4212 51.5133 63.6248 50.5284 64.032 49.6761C64.4439 48.8191 65.0168 48.1515 65.7507 47.6733C66.4893 47.1903 67.3511 46.9489 68.3359 46.9489C68.9041 46.9489 69.4652 47.0436 70.0192 47.233C70.5732 47.4223 71.0774 47.7301 71.532 48.1562C71.9865 48.5777 72.3487 49.1364 72.6186 49.8324C72.8885 50.5284 73.0234 51.3854 73.0234 52.4034V53.1136H64.6143V51.6648H71.3189C71.3189 51.0492 71.1958 50.5 70.9496 50.017C70.7081 49.5341 70.3625 49.1529 69.9126 48.8736C69.4676 48.5942 68.942 48.4545 68.3359 48.4545C67.6683 48.4545 67.0907 48.6203 66.603 48.9517C66.12 49.2784 65.7483 49.7045 65.4879 50.2301C65.2275 50.7557 65.0973 51.3191 65.0973 51.9205V52.8864C65.0973 53.7102 65.2393 54.4086 65.5234 54.9815C65.8123 55.5497 66.2124 55.983 66.7237 56.2812C67.2351 56.5748 67.8293 56.7216 68.5064 56.7216C68.9467 56.7216 69.3445 56.66 69.6996 56.5369C70.0594 56.4091 70.3696 56.2197 70.63 55.9688C70.8904 55.7131 71.0916 55.3958 71.2337 55.017L72.853 55.4716C72.6825 56.0208 72.3961 56.5038 71.9936 56.9205C71.5911 57.3324 71.094 57.6544 70.5021 57.8864C69.9103 58.1136 69.245 58.2273 68.5064 58.2273ZM81.1982 58V47.0909H82.8175V48.7955H82.9595C83.1868 48.2131 83.5537 47.7609 84.0604 47.4389C84.567 47.1122 85.1754 46.9489 85.8857 46.9489C86.6054 46.9489 87.2043 47.1122 87.6825 47.4389C88.1655 47.7609 88.5419 48.2131 88.8118 48.7955H88.9254C89.2048 48.232 89.6238 47.7846 90.1825 47.4531C90.7412 47.117 91.4112 46.9489 92.1925 46.9489C93.1679 46.9489 93.9657 47.2543 94.5859 47.8651C95.2062 48.4711 95.5163 49.4157 95.5163 50.6989V58H93.8402V50.6989C93.8402 49.8939 93.62 49.3187 93.1797 48.973C92.7393 48.6274 92.2209 48.4545 91.6243 48.4545C90.8572 48.4545 90.263 48.6866 89.8416 49.1506C89.4202 49.6098 89.2095 50.1922 89.2095 50.8977V58H87.505V50.5284C87.505 49.9081 87.3037 49.4086 86.9013 49.0298C86.4988 48.6463 85.9804 48.4545 85.3459 48.4545C84.9103 48.4545 84.5031 48.5705 84.1243 48.8026C83.7502 49.0346 83.4472 49.3565 83.2152 49.7685C82.9879 50.1757 82.8743 50.6468 82.8743 51.1818V58H81.1982ZM103.155 58.2273C102.104 58.2273 101.197 57.9953 100.435 57.5312C99.6771 57.0625 99.0923 56.4091 98.6804 55.571C98.2732 54.7282 98.0696 53.7481 98.0696 52.6307C98.0696 51.5133 98.2732 50.5284 98.6804 49.6761C99.0923 48.8191 99.6652 48.1515 100.399 47.6733C101.138 47.1903 102 46.9489 102.984 46.9489C103.553 46.9489 104.114 47.0436 104.668 47.233C105.222 47.4223 105.726 47.7301 106.18 48.1562C106.635 48.5777 106.997 49.1364 107.267 49.8324C107.537 50.5284 107.672 51.3854 107.672 52.4034V53.1136H99.2628V51.6648H105.967C105.967 51.0492 105.844 50.5 105.598 50.017C105.357 49.5341 105.011 49.1529 104.561 48.8736C104.116 48.5942 103.59 48.4545 102.984 48.4545C102.317 48.4545 101.739 48.6203 101.251 48.9517C100.768 49.2784 100.397 49.7045 100.136 50.2301C99.8759 50.7557 99.7457 51.3191 99.7457 51.9205V52.8864C99.7457 53.7102 99.8878 54.4086 100.172 54.9815C100.461 55.5497 100.861 55.983 101.372 56.2812C101.884 56.5748 102.478 56.7216 103.155 56.7216C103.595 56.7216 103.993 56.66 104.348 56.5369C104.708 56.4091 105.018 56.2197 105.278 55.9688C105.539 55.7131 105.74 55.3958 105.882 55.017L107.501 55.4716C107.331 56.0208 107.045 56.5038 106.642 56.9205C106.24 57.3324 105.742 57.6544 105.151 57.8864C104.559 58.1136 103.893 58.2273 103.155 58.2273ZM110.222 58V47.0909H111.841V48.7386H111.955C112.153 48.1989 112.513 47.7609 113.034 47.4247C113.555 47.0885 114.142 46.9205 114.795 46.9205C114.919 46.9205 115.072 46.9228 115.257 46.9276C115.442 46.9323 115.581 46.9394 115.676 46.9489V48.6534C115.619 48.6392 115.489 48.6179 115.286 48.5895C115.087 48.5563 114.876 48.5398 114.653 48.5398C114.123 48.5398 113.65 48.651 113.233 48.8736C112.821 49.0914 112.494 49.3944 112.253 49.7827C112.016 50.1662 111.898 50.6042 111.898 51.0966V58H110.222ZM121.763 58.2273C120.74 58.2273 119.859 57.9858 119.121 57.5028C118.382 57.0199 117.814 56.3546 117.416 55.5071C117.018 54.6596 116.82 53.6913 116.82 52.6023C116.82 51.4943 117.023 50.5166 117.43 49.669C117.842 48.8168 118.415 48.1515 119.149 47.6733C119.888 47.1903 120.75 46.9489 121.734 46.9489C122.501 46.9489 123.193 47.0909 123.808 47.375C124.424 47.6591 124.928 48.0568 125.321 48.5682C125.714 49.0795 125.958 49.6761 126.053 50.358H124.376C124.249 49.8608 123.964 49.4205 123.524 49.0369C123.089 48.6487 122.501 48.4545 121.763 48.4545C121.109 48.4545 120.536 48.625 120.044 48.9659C119.556 49.3021 119.175 49.7779 118.901 50.3935C118.631 51.0043 118.496 51.7216 118.496 52.5455C118.496 53.3883 118.628 54.1222 118.893 54.7472C119.163 55.3722 119.542 55.8575 120.03 56.2031C120.522 56.5488 121.1 56.7216 121.763 56.7216C122.198 56.7216 122.594 56.6458 122.949 56.4943C123.304 56.3428 123.605 56.125 123.851 55.8409C124.097 55.5568 124.272 55.2159 124.376 54.8182H126.053C125.958 55.4621 125.723 56.0421 125.349 56.5582C124.98 57.0696 124.49 57.4768 123.879 57.7798C123.273 58.0781 122.568 58.2273 121.763 58.2273ZM131.713 58.2557C131.022 58.2557 130.394 58.1255 129.831 57.8651C129.268 57.5999 128.82 57.2188 128.489 56.7216C128.157 56.2197 127.991 55.6136 127.991 54.9034C127.991 54.2784 128.115 53.7718 128.361 53.3835C128.607 52.9905 128.936 52.6828 129.348 52.4602C129.76 52.2377 130.214 52.072 130.712 51.9631C131.214 51.8494 131.718 51.7595 132.224 51.6932C132.887 51.608 133.425 51.544 133.837 51.5014C134.253 51.4541 134.556 51.3759 134.746 51.267C134.94 51.1581 135.037 50.9687 135.037 50.6989V50.642C135.037 49.9413 134.845 49.3968 134.462 49.0085C134.083 48.6203 133.508 48.4261 132.736 48.4261C131.936 48.4261 131.308 48.6013 130.854 48.9517C130.399 49.3021 130.08 49.6761 129.895 50.0739L128.304 49.5057C128.588 48.8428 128.967 48.3267 129.44 47.9574C129.919 47.5833 130.439 47.3229 131.003 47.1761C131.571 47.0246 132.13 46.9489 132.679 46.9489C133.029 46.9489 133.432 46.9915 133.886 47.0767C134.346 47.1572 134.788 47.3253 135.214 47.581C135.645 47.8366 136.003 48.2225 136.287 48.7386C136.571 49.2547 136.713 49.946 136.713 50.8125V58H135.037V56.5227H134.952C134.838 56.7595 134.649 57.0128 134.384 57.2827C134.118 57.5526 133.766 57.7822 133.325 57.9716C132.885 58.161 132.348 58.2557 131.713 58.2557ZM131.969 56.75C132.632 56.75 133.19 56.6198 133.645 56.3594C134.104 56.099 134.45 55.7628 134.682 55.3509C134.919 54.9389 135.037 54.5057 135.037 54.0511V52.517C134.966 52.6023 134.81 52.6804 134.568 52.7514C134.331 52.8177 134.057 52.8769 133.744 52.929C133.437 52.9763 133.136 53.0189 132.842 53.0568C132.554 53.09 132.319 53.1184 132.139 53.142C131.704 53.1989 131.296 53.2912 130.918 53.419C130.544 53.5421 130.241 53.7292 130.009 53.9801C129.781 54.2263 129.668 54.5625 129.668 54.9886C129.668 55.571 129.883 56.0114 130.314 56.3097C130.75 56.6032 131.301 56.75 131.969 56.75ZM143.892 58.2273C142.983 58.2273 142.18 57.9976 141.484 57.5384C140.788 57.0743 140.243 56.4209 139.85 55.5781C139.458 54.7306 139.261 53.7292 139.261 52.5739C139.261 51.428 139.458 50.4337 139.85 49.5909C140.243 48.7481 140.79 48.0971 141.491 47.6378C142.192 47.1785 143.002 46.9489 143.92 46.9489C144.63 46.9489 145.191 47.0672 145.603 47.304C146.02 47.536 146.337 47.8011 146.555 48.0994C146.778 48.393 146.95 48.6345 147.074 48.8239H147.216V43.4545H148.892V58H147.272V56.3239H147.074C146.95 56.5227 146.775 56.7737 146.548 57.0767C146.321 57.375 145.996 57.6425 145.575 57.8793C145.154 58.1113 144.592 58.2273 143.892 58.2273ZM144.119 56.7216C144.791 56.7216 145.359 56.5464 145.824 56.196C146.288 55.8409 146.64 55.3509 146.882 54.7259C147.123 54.0961 147.244 53.3693 147.244 52.5455C147.244 51.7311 147.126 51.0185 146.889 50.4077C146.652 49.7921 146.302 49.3139 145.838 48.973C145.374 48.6274 144.801 48.4545 144.119 48.4545C143.409 48.4545 142.817 48.6368 142.343 49.0014C141.875 49.3613 141.522 49.8513 141.285 50.4716C141.053 51.0871 140.937 51.7784 140.937 52.5455C140.937 53.322 141.056 54.0275 141.292 54.6619C141.534 55.2917 141.889 55.7936 142.358 56.1676C142.831 56.5369 143.418 56.7216 144.119 56.7216ZM156.626 58.2273C155.641 58.2273 154.777 57.9929 154.034 57.5241C153.295 57.0554 152.717 56.3996 152.301 55.5568C151.889 54.714 151.683 53.7292 151.683 52.6023C151.683 51.4659 151.889 50.474 152.301 49.6264C152.717 48.7789 153.295 48.1207 154.034 47.652C154.777 47.1832 155.641 46.9489 156.626 46.9489C157.611 46.9489 158.473 47.1832 159.211 47.652C159.955 48.1207 160.532 48.7789 160.944 49.6264C161.361 50.474 161.569 51.4659 161.569 52.6023C161.569 53.7292 161.361 54.714 160.944 55.5568C160.532 56.3996 159.955 57.0554 159.211 57.5241C158.473 57.9929 157.611 58.2273 156.626 58.2273ZM156.626 56.7216C157.374 56.7216 157.99 56.5298 158.473 56.1463C158.956 55.7628 159.313 55.2585 159.545 54.6335C159.777 54.0085 159.893 53.3314 159.893 52.6023C159.893 51.8731 159.777 51.1937 159.545 50.5639C159.313 49.9342 158.956 49.4252 158.473 49.0369C157.99 48.6487 157.374 48.4545 156.626 48.4545C155.878 48.4545 155.262 48.6487 154.779 49.0369C154.297 49.4252 153.939 49.9342 153.707 50.5639C153.475 51.1937 153.359 51.8731 153.359 52.6023C153.359 53.3314 153.475 54.0085 153.707 54.6335C153.939 55.2585 154.297 55.7628 154.779 56.1463C155.262 56.5298 155.878 56.7216 156.626 56.7216ZM174.327 58.2273C173.276 58.2273 172.369 57.9953 171.607 57.5312C170.849 57.0625 170.264 56.4091 169.852 55.571C169.445 54.7282 169.241 53.7481 169.241 52.6307C169.241 51.5133 169.445 50.5284 169.852 49.6761C170.264 48.8191 170.837 48.1515 171.571 47.6733C172.31 47.1903 173.171 46.9489 174.156 46.9489C174.724 46.9489 175.286 47.0436 175.839 47.233C176.393 47.4223 176.898 47.7301 177.352 48.1562C177.807 48.5777 178.169 49.1364 178.439 49.8324C178.709 50.5284 178.844 51.3854 178.844 52.4034V53.1136H170.435V51.6648H177.139C177.139 51.0492 177.016 50.5 176.77 50.017C176.528 49.5341 176.183 49.1529 175.733 48.8736C175.288 48.5942 174.762 48.4545 174.156 48.4545C173.489 48.4545 172.911 48.6203 172.423 48.9517C171.94 49.2784 171.569 49.7045 171.308 50.2301C171.048 50.7557 170.918 51.3191 170.918 51.9205V52.8864C170.918 53.7102 171.06 54.4086 171.344 54.9815C171.633 55.5497 172.033 55.983 172.544 56.2812C173.055 56.5748 173.65 56.7216 174.327 56.7216C174.767 56.7216 175.165 56.66 175.52 56.5369C175.88 56.4091 176.19 56.2197 176.45 55.9688C176.711 55.7131 176.912 55.3958 177.054 55.017L178.673 55.4716C178.503 56.0208 178.216 56.5038 177.814 56.9205C177.411 57.3324 176.914 57.6544 176.322 57.8864C175.731 58.1136 175.065 58.2273 174.327 58.2273ZM191.592 58.2273C190.541 58.2273 189.634 57.9953 188.872 57.5312C188.115 57.0625 187.53 56.4091 187.118 55.571C186.711 54.7282 186.507 53.7481 186.507 52.6307C186.507 51.5133 186.711 50.5284 187.118 49.6761C187.53 48.8191 188.103 48.1515 188.837 47.6733C189.575 47.1903 190.437 46.9489 191.422 46.9489C191.99 46.9489 192.551 47.0436 193.105 47.233C193.659 47.4223 194.163 47.7301 194.618 48.1562C195.072 48.5777 195.435 49.1364 195.705 49.8324C195.974 50.5284 196.109 51.3854 196.109 52.4034V53.1136H187.7V51.6648H194.405C194.405 51.0492 194.282 50.5 194.036 50.017C193.794 49.5341 193.448 49.1529 192.999 48.8736C192.554 48.5942 192.028 48.4545 191.422 48.4545C190.754 48.4545 190.177 48.6203 189.689 48.9517C189.206 49.2784 188.834 49.7045 188.574 50.2301C188.313 50.7557 188.183 51.3191 188.183 51.9205V52.8864C188.183 53.7102 188.325 54.4086 188.609 54.9815C188.898 55.5497 189.298 55.983 189.81 56.2812C190.321 56.5748 190.915 56.7216 191.592 56.7216C192.033 56.7216 192.43 56.66 192.786 56.5369C193.145 56.4091 193.455 56.2197 193.716 55.9688C193.976 55.7131 194.178 55.3958 194.32 55.017L195.939 55.4716C195.768 56.0208 195.482 56.5038 195.08 56.9205C194.677 57.3324 194.18 57.6544 193.588 57.8864C192.996 58.1136 192.331 58.2273 191.592 58.2273ZM199.616 47.0909L202.23 51.5511L204.843 47.0909H206.775L203.252 52.5455L206.775 58H204.843L202.23 53.767L199.616 58H197.684L201.15 52.5455L197.684 47.0909H199.616ZM209.167 62.0909V47.0909H210.786V48.8239H210.985C211.108 48.6345 211.279 48.393 211.496 48.0994C211.719 47.8011 212.036 47.536 212.448 47.304C212.865 47.0672 213.428 46.9489 214.138 46.9489C215.057 46.9489 215.867 47.1785 216.567 47.6378C217.268 48.0971 217.815 48.7481 218.208 49.5909C218.601 50.4337 218.798 51.428 218.798 52.5739C218.798 53.7292 218.601 54.7306 218.208 55.5781C217.815 56.4209 217.271 57.0743 216.575 57.5384C215.879 57.9976 215.076 58.2273 214.167 58.2273C213.466 58.2273 212.905 58.1113 212.484 57.8793C212.062 57.6425 211.738 57.375 211.511 57.0767C211.283 56.7737 211.108 56.5227 210.985 56.3239H210.843V62.0909H209.167ZM210.815 52.5455C210.815 53.3693 210.935 54.0961 211.177 54.7259C211.418 55.3509 211.771 55.8409 212.235 56.196C212.699 56.5464 213.267 56.7216 213.94 56.7216C214.64 56.7216 215.225 56.5369 215.694 56.1676C216.167 55.7936 216.522 55.2917 216.759 54.6619C217.001 54.0275 217.121 53.322 217.121 52.5455C217.121 51.7784 217.003 51.0871 216.766 50.4716C216.534 49.8513 216.182 49.3613 215.708 49.0014C215.239 48.6368 214.65 48.4545 213.94 48.4545C213.258 48.4545 212.685 48.6274 212.221 48.973C211.757 49.3139 211.406 49.7921 211.17 50.4077C210.933 51.0185 210.815 51.7311 210.815 52.5455ZM225.928 58.2273C224.877 58.2273 223.97 57.9953 223.208 57.5312C222.451 57.0625 221.866 56.4091 221.454 55.571C221.047 54.7282 220.843 53.7481 220.843 52.6307C220.843 51.5133 221.047 50.5284 221.454 49.6761C221.866 48.8191 222.439 48.1515 223.173 47.6733C223.911 47.1903 224.773 46.9489 225.758 46.9489C226.326 46.9489 226.887 47.0436 227.441 47.233C227.995 47.4223 228.499 47.7301 228.954 48.1562C229.408 48.5777 229.771 49.1364 230.04 49.8324C230.31 50.5284 230.445 51.3854 230.445 52.4034V53.1136H222.036V51.6648H228.741C228.741 51.0492 228.618 50.5 228.371 50.017C228.13 49.5341 227.784 49.1529 227.335 48.8736C226.889 48.5942 226.364 48.4545 225.758 48.4545C225.09 48.4545 224.513 48.6203 224.025 48.9517C223.542 49.2784 223.17 49.7045 222.91 50.2301C222.649 50.7557 222.519 51.3191 222.519 51.9205V52.8864C222.519 53.7102 222.661 54.4086 222.945 54.9815C223.234 55.5497 223.634 55.983 224.146 56.2812C224.657 56.5748 225.251 56.7216 225.928 56.7216C226.369 56.7216 226.766 56.66 227.121 56.5369C227.481 56.4091 227.791 56.2197 228.052 55.9688C228.312 55.7131 228.513 55.3958 228.656 55.017L230.275 55.4716C230.104 56.0208 229.818 56.5038 229.415 56.9205C229.013 57.3324 228.516 57.6544 227.924 57.8864C227.332 58.1136 226.667 58.2273 225.928 58.2273ZM232.995 58V47.0909H234.614V48.7386H234.728C234.927 48.1989 235.287 47.7609 235.808 47.4247C236.328 47.0885 236.915 46.9205 237.569 46.9205C237.692 46.9205 237.846 46.9228 238.031 46.9276C238.215 46.9323 238.355 46.9394 238.45 46.9489V48.6534C238.393 48.6392 238.263 48.6179 238.059 48.5895C237.86 48.5563 237.649 48.5398 237.427 48.5398C236.897 48.5398 236.423 48.651 236.006 48.8736C235.594 49.0914 235.268 49.3944 235.026 49.7827C234.79 50.1662 234.671 50.6042 234.671 51.0966V58H232.995ZM240.436 58V47.0909H242.113V58H240.436ZM241.289 45.2727C240.962 45.2727 240.68 45.1615 240.444 44.9389C240.212 44.7164 240.096 44.4489 240.096 44.1364C240.096 43.8239 240.212 43.5563 240.444 43.3338C240.68 43.1113 240.962 43 241.289 43C241.615 43 241.895 43.1113 242.127 43.3338C242.364 43.5563 242.482 43.8239 242.482 44.1364C242.482 44.4489 242.364 44.7164 242.127 44.9389C241.895 45.1615 241.615 45.2727 241.289 45.2727ZM249.756 58.2273C248.705 58.2273 247.799 57.9953 247.036 57.5312C246.279 57.0625 245.694 56.4091 245.282 55.571C244.875 54.7282 244.671 53.7481 244.671 52.6307C244.671 51.5133 244.875 50.5284 245.282 49.6761C245.694 48.8191 246.267 48.1515 247.001 47.6733C247.739 47.1903 248.601 46.9489 249.586 46.9489C250.154 46.9489 250.715 47.0436 251.269 47.233C251.823 47.4223 252.327 47.7301 252.782 48.1562C253.237 48.5777 253.599 49.1364 253.869 49.8324C254.138 50.5284 254.273 51.3854 254.273 52.4034V53.1136H245.864V51.6648H252.569C252.569 51.0492 252.446 50.5 252.2 50.017C251.958 49.5341 251.612 49.1529 251.163 48.8736C250.718 48.5942 250.192 48.4545 249.586 48.4545C248.918 48.4545 248.341 48.6203 247.853 48.9517C247.37 49.2784 246.998 49.7045 246.738 50.2301C246.478 50.7557 246.347 51.3191 246.347 51.9205V52.8864C246.347 53.7102 246.489 54.4086 246.773 54.9815C247.062 55.5497 247.462 55.983 247.974 56.2812C248.485 56.5748 249.079 56.7216 249.756 56.7216C250.197 56.7216 250.594 56.66 250.95 56.5369C251.309 56.4091 251.62 56.2197 251.88 55.9688C252.14 55.7131 252.342 55.3958 252.484 55.017L254.103 55.4716C253.933 56.0208 253.646 56.5038 253.244 56.9205C252.841 57.3324 252.344 57.6544 251.752 57.8864C251.16 58.1136 250.495 58.2273 249.756 58.2273ZM250.978 45.7841L249.501 43.7955L248.023 45.7841H246.433V45.6705L248.734 42.7159H250.268L252.569 45.6705V45.7841H250.978ZM258.499 51.4375V58H256.823V47.0909H258.442V48.7955H258.585C258.84 48.2415 259.228 47.7964 259.749 47.4602C260.27 47.1193 260.942 46.9489 261.766 46.9489C262.505 46.9489 263.151 47.1004 263.705 47.4034C264.259 47.7017 264.69 48.1562 264.998 48.767C265.306 49.3731 265.46 50.1402 265.46 51.0682V58H263.783V51.1818C263.783 50.3248 263.561 49.6572 263.116 49.179C262.671 48.696 262.06 48.4545 261.283 48.4545C260.748 48.4545 260.27 48.5705 259.849 48.8026C259.432 49.0346 259.103 49.3731 258.862 49.8182C258.62 50.2633 258.499 50.803 258.499 51.4375ZM272.954 58.2273C271.931 58.2273 271.051 57.9858 270.312 57.5028C269.574 57.0199 269.005 56.3546 268.608 55.5071C268.21 54.6596 268.011 53.6913 268.011 52.6023C268.011 51.4943 268.215 50.5166 268.622 49.669C269.034 48.8168 269.607 48.1515 270.341 47.6733C271.079 47.1903 271.941 46.9489 272.926 46.9489C273.693 46.9489 274.384 47.0909 275 47.375C275.615 47.6591 276.119 48.0568 276.512 48.5682C276.905 49.0795 277.149 49.6761 277.244 50.358H275.568C275.44 49.8608 275.156 49.4205 274.716 49.0369C274.28 48.6487 273.693 48.4545 272.954 48.4545C272.301 48.4545 271.728 48.625 271.235 48.9659C270.748 49.3021 270.367 49.7779 270.092 50.3935C269.822 51.0043 269.687 51.7216 269.687 52.5455C269.687 53.3883 269.82 54.1222 270.085 54.7472C270.355 55.3722 270.734 55.8575 271.221 56.2031C271.714 56.5488 272.291 56.7216 272.954 56.7216C273.39 56.7216 273.785 56.6458 274.14 56.4943C274.495 56.3428 274.796 56.125 275.042 55.8409C275.288 55.5568 275.464 55.2159 275.568 54.8182H277.244C277.149 55.4621 276.915 56.0421 276.541 56.5582C276.172 57.0696 275.681 57.4768 275.071 57.7798C274.465 58.0781 273.759 58.2273 272.954 58.2273ZM279.694 58V47.0909H281.37V58H279.694ZM280.547 45.2727C280.22 45.2727 279.938 45.1615 279.701 44.9389C279.469 44.7164 279.353 44.4489 279.353 44.1364C279.353 43.8239 279.469 43.5563 279.701 43.3338C279.938 43.1113 280.22 43 280.547 43C280.873 43 281.153 43.1113 281.385 43.3338C281.621 43.5563 281.74 43.8239 281.74 44.1364C281.74 44.4489 281.621 44.7164 281.385 44.9389C281.153 45.1615 280.873 45.2727 280.547 45.2727ZM287.651 58.2557C286.959 58.2557 286.332 58.1255 285.768 57.8651C285.205 57.5999 284.758 57.2188 284.426 56.7216C284.095 56.2197 283.929 55.6136 283.929 54.9034C283.929 54.2784 284.052 53.7718 284.298 53.3835C284.545 52.9905 284.874 52.6828 285.286 52.4602C285.697 52.2377 286.152 52.072 286.649 51.9631C287.151 51.8494 287.655 51.7595 288.162 51.6932C288.825 51.608 289.362 51.544 289.774 51.5014C290.191 51.4541 290.494 51.3759 290.683 51.267C290.877 51.1581 290.974 50.9687 290.974 50.6989V50.642C290.974 49.9413 290.783 49.3968 290.399 49.0085C290.02 48.6203 289.445 48.4261 288.673 48.4261C287.873 48.4261 287.246 48.6013 286.791 48.9517C286.337 49.3021 286.017 49.6761 285.832 50.0739L284.241 49.5057C284.526 48.8428 284.904 48.3267 285.378 47.9574C285.856 47.5833 286.377 47.3229 286.94 47.1761C287.509 47.0246 288.067 46.9489 288.616 46.9489C288.967 46.9489 289.369 46.9915 289.824 47.0767C290.283 47.1572 290.726 47.3253 291.152 47.581C291.583 47.8366 291.94 48.2225 292.224 48.7386C292.509 49.2547 292.651 49.946 292.651 50.8125V58H290.974V56.5227H290.889C290.776 56.7595 290.586 57.0128 290.321 57.2827C290.056 57.5526 289.703 57.7822 289.263 57.9716C288.822 58.161 288.285 58.2557 287.651 58.2557ZM287.906 56.75C288.569 56.75 289.128 56.6198 289.582 56.3594C290.042 56.099 290.387 55.7628 290.619 55.3509C290.856 54.9389 290.974 54.5057 290.974 54.0511V52.517C290.903 52.6023 290.747 52.6804 290.506 52.7514C290.269 52.8177 289.994 52.8769 289.682 52.929C289.374 52.9763 289.073 53.0189 288.78 53.0568C288.491 53.09 288.257 53.1184 288.077 53.142C287.641 53.1989 287.234 53.2912 286.855 53.419C286.481 53.5421 286.178 53.7292 285.946 53.9801C285.719 54.2263 285.605 54.5625 285.605 54.9886C285.605 55.571 285.821 56.0114 286.251 56.3097C286.687 56.6032 287.239 56.75 287.906 56.75Z" fill="black"/>
</svg>
